<?xml version="1.0" standalone="no"?>
<!DOCTYPE svg PUBLIC "-//W3C//DTD SVG 1.1//EN" "http://www.w3.org/Graphics/SVG/1.1/DTD/svg11.dtd" >
<svg xmlns="http://www.w3.org/2000/svg">
<metadata>Generated by IcoMoon</metadata>
<defs>
<font id="Hexicon-Regular" horiz-adv-x="1024">
<font-face units-per-em="1024" ascent="960" descent="-64" />
<missing-glyph horiz-adv-x="1024" />
<glyph unicode="&#x20;" horiz-adv-x="512" d="" />
<glyph unicode="&#xe900;" glyph-name="trash-can" d="M896 746.672h-170.672v42.672c0 72.528-55.472 128-128 128h-170.672c-72.528 0-128-55.472-128-128v-42.672h-170.672c-25.6 0-42.672-17.072-42.672-42.672s17.072-42.672 42.672-42.672h42.672v-554.672c0-72.528 55.472-128 128-128h426.672c72.528 0 128 55.472 128 128v554.672h42.672c25.6 0 42.672 17.072 42.672 42.672s-17.072 42.672-42.672 42.672zM384 789.328c0 25.6 17.072 42.672 42.672 42.672h170.672c25.6 0 42.672-17.072 42.672-42.672v-42.672h-256v42.672zM768 106.672c0-25.6-17.072-42.672-42.672-42.672h-426.672c-25.6 0-42.672 17.072-42.672 42.672v554.672h512v-554.672zM469.328 490.672v-256c0-25.6-17.072-42.672-42.672-42.672s-42.672 17.072-42.672 42.672v256c0 25.6 17.072 42.672 42.672 42.672s42.672-17.072 42.672-42.672zM640 490.672v-256c0-25.6-17.072-42.672-42.672-42.672s-42.672 17.072-42.672 42.672v256c0 25.6 17.072 42.672 42.672 42.672s42.672-17.072 42.672-42.672z" />
<glyph unicode="&#xe901;" glyph-name="close" d="M797.872 221.872c17.072-17.072 17.072-42.672 0-59.728-8.528-8.528-17.072-12.8-29.872-12.8s-21.328 4.272-29.872 12.8l-226.128 226.128-226.128-226.128c-8.528-8.528-17.072-12.8-29.872-12.8s-21.328 4.272-29.872 12.8c-17.072 17.072-17.072 42.672 0 59.728l226.128 226.128-226.128 226.128c-17.072 17.072-17.072 42.672 0 59.728s42.672 17.072 59.728 0l226.128-226.128 226.128 226.128c17.072 17.072 42.672 17.072 59.728 0s17.072-42.672 0-59.728l-226.128-226.128 226.128-226.128z" />
<glyph unicode="&#xe902;" glyph-name="cloud-download" d="M708.272 264.528c16.896-17.072 16.896-42.672 0-59.728l-168.88-170.672c-4.224-4.272-8.448-8.528-12.672-8.528-4.224-4.272-12.672-4.272-16.88-4.272s-12.672 0-16.88 4.272c-4.224 4.272-8.448 4.272-12.672 8.528l-168.88 170.672c-16.88 17.072-16.88 42.672 0 59.728s42.224 17.072 59.104 0l97.104-98.128v281.6c0 25.6 16.88 42.672 42.224 42.672s42.224-17.072 42.224-42.672v-281.6l97.104 98.128c16.896 17.072 42.224 17.072 59.104 0zM970.048 512c-46.448 64-122.432 106.672-206.88 106.672 0 0 0 0 0 0h-21.104c-63.328 187.728-261.76 294.4-451.76 243.2-101.328-25.6-181.552-85.328-236.432-174.928-50.672-89.6-67.552-192-42.224-290.128 16.896-59.728 42.224-115.2 84.448-157.872 16.896-17.072 42.224-21.328 59.104-4.272s21.104 42.672 4.224 59.728c-29.552 34.128-54.88 76.8-63.328 123.728-21.104 76.8-8.448 157.872 33.776 226.128s105.552 119.472 181.552 136.528c156.208 42.672 320.88-55.472 358.88-213.328 4.224-17.072 21.104-34.128 42.224-34.128h50.656c0 0 0 0 0 0 54.88 0 105.552-25.6 139.328-72.528 25.328-38.4 38-81.072 29.552-128s-33.776-85.328-67.552-110.928c-21.104-12.8-25.328-38.4-8.448-59.728 8.448-12.8 21.104-17.072 33.776-17.072 8.448 0 16.896 4.272 25.328 8.528 54.88 38.4 92.88 98.128 105.552 166.4s-12.672 132.272-50.656 192z" />
<glyph unicode="&#xe903;" glyph-name="cloud-drizzle" d="M384.448 149.328v-85.328c0-25.6-17.072-42.672-42.672-42.672s-42.672 17.072-42.672 42.672v85.328c0 25.6 17.072 42.672 42.672 42.672s42.672-17.072 42.672-42.672zM341.776 448c-25.6 0-42.672-17.072-42.672-42.672v-85.328c0-25.6 17.072-42.672 42.672-42.672s42.672 17.072 42.672 42.672v85.328c0 25.6-17.072 42.672-42.672 42.672zM683.12 192c-25.6 0-42.672-17.072-42.672-42.672v-85.328c0-25.6 17.072-42.672 42.672-42.672s42.672 17.072 42.672 42.672v85.328c0 25.6-17.072 42.672-42.672 42.672zM683.12 448c-25.6 0-42.672-17.072-42.672-42.672v-85.328c0-25.6 17.072-42.672 42.672-42.672s42.672 17.072 42.672 42.672v85.328c0 25.6-17.072 42.672-42.672 42.672zM512.448 106.656c-25.6 0-42.672-17.072-42.672-42.672v-85.328c0-25.6 17.072-42.672 42.672-42.672s42.672 17.072 42.672 42.672v85.328c0 25.6-17.072 42.672-42.672 42.672zM512.448 362.656c-25.6 0-42.672-17.072-42.672-42.672v-85.328c0-25.6 17.072-42.672 42.672-42.672s42.672 17.072 42.672 42.672v85.328c0 25.6-17.072 42.672-42.672 42.672zM1003.12 550.4c-42.672 93.872-132.272 153.6-234.672 153.6h-21.328c-64 187.728-264.528 294.4-456.528 243.2-209.072-51.2-332.8-260.272-277.328-469.328 21.328-81.072 68.272-153.6 132.272-204.8 17.072-12.8 46.928-12.8 59.728 8.528 12.8 17.072 12.8 46.928-8.528 59.728-51.2 38.4-85.328 98.128-102.4 157.872-42.672 157.872 55.472 324.272 213.328 362.672 157.872 42.672 324.272-55.472 362.672-213.328 4.272-17.072 21.328-34.128 42.672-34.128h55.472c68.272 0 128-38.4 157.872-102.4 17.072-42.672 21.328-89.6 4.272-132.272s-46.928-76.8-89.6-93.872c-21.328-8.528-29.872-34.128-21.328-55.472 8.528-17.072 21.328-25.6 38.4-25.6 4.272 0 12.8 0 17.072 4.272 64 25.6 110.928 76.8 136.528 140.8 21.328 68.272 17.072 136.528-8.528 200.528z" />
<glyph unicode="&#xe904;" glyph-name="cloud-lightning" d="M819.936 197.424c-4.256 0-4.256 0-8.496 0-21.248 0-38.24 12.864-42.496 34.288s8.496 47.136 34 51.424c93.488 17.136 152.976 111.424 131.728 201.424-16.992 81.424-84.992 137.152-165.712 137.152 0 0 0 0 0 0h-55.232c-21.248 0-38.24 12.864-42.496 34.288-42.496 158.576-203.968 257.152-361.184 214.288-76.48-21.424-140.224-68.576-178.464-137.152-42.496-72.864-55.232-150-34-231.424s72.24-145.712 144.48-188.576c21.248-8.576 29.744-34.288 16.992-55.712s-38.24-30-59.488-17.136c-93.488 51.424-157.216 137.152-186.96 240-25.488 98.576-12.752 205.712 42.496 291.44 50.992 90 135.968 150 233.712 175.712 191.216 51.424 390.928-60 454.656-244.288h25.488c0 0 0 0 0 0 118.976 0 225.2-85.712 250.704-205.712 25.488-132.864-63.744-270-199.712-300zM641.472 278.864h-174.224l127.472 188.576c12.752 21.424 8.496 47.136-12.752 60s-46.736 8.576-59.488-12.864l-169.968-257.152c-8.496-12.864-8.496-30 0-42.864 4.256-12.864 16.992-21.424 34-21.424h174.224l-127.472-188.576c-12.752-21.424-8.496-47.136 12.752-60 8.496-4.288 16.992-8.576 25.488-8.576 12.752 0 25.488 8.576 34 17.136l169.968 257.152c8.496 12.864 8.496 30 0 42.864s-16.992 25.712-34 25.712z" />
<glyph unicode="&#xe905;" glyph-name="cloud-off" d="M374.656 793.6c0 21.328 21.216 42.672 46.688 38.4 148.544-12.8 275.872-115.2 326.8-256h21.216c0 0 0 0 0 0 33.952 0 67.904-8.528 97.616-21.328 127.328-55.472 190.976-204.8 135.808-337.072-4.24-12.8-21.216-25.6-38.192-25.6-4.24 0-12.736 0-16.976 4.272-21.216 8.528-29.712 34.128-21.216 55.472 38.192 85.328-4.24 187.728-89.12 221.872-21.216 8.528-42.448 12.8-67.904 12.8h-55.168c-21.216 0-38.192 12.8-42.448 34.128-29.712 123.728-131.568 213.328-258.896 226.128-21.216 4.272-42.448 21.328-38.192 46.928zM1011.264 8.528c16.976-17.072 16.976-42.672 0-59.728-8.496-8.528-16.976-12.8-29.712-12.8s-21.216 4.272-29.712 12.8l-123.072 123.728c-21.216-4.272-38.192-8.528-59.424-8.528h-381.968c0 0-4.24 0-4.24 0-140.048 0-267.376 76.8-335.28 196.272-50.928 89.6-59.424 192-33.952 290.128 25.472 85.328 72.144 153.6 135.808 204.8l-131.568 132.272c-16.976 17.072-16.976 42.672 0 59.728s42.448 17.072 59.424 0l933.696-938.672zM752.384 149.328l-539.008 541.872c-55.168-38.4-97.616-93.872-114.592-162.128-21.216-76.8-12.736-157.872 25.472-226.128 50.928-98.128 152.784-157.872 263.136-153.6h364.992z" />
<glyph unicode="&#xe906;" glyph-name="cloud-rain" d="M724.848 405.328v-341.328c0-25.6-17.040-42.672-42.608-42.672s-42.608 17.072-42.608 42.672v341.328c0 25.6 17.040 42.672 42.608 42.672s42.608-17.072 42.608-42.672zM341.344 448c-25.568 0-42.608-17.072-42.608-42.672v-341.328c0-25.6 17.040-42.672 42.608-42.672s42.608 17.072 42.608 42.672v341.328c0 25.6-17.040 42.672-42.608 42.672zM511.792 362.656c-25.568 0-42.608-17.072-42.608-42.672v-341.328c0-25.6 17.040-42.672 42.608-42.672s42.608 17.072 42.608 42.672v341.328c0 25.6-17.040 42.672-42.608 42.672zM1001.84 550.4c-42.608 93.872-132.096 153.6-234.368 153.6h-21.312c-63.92 187.728-264.192 294.4-455.952 243.2-208.8-51.2-332.368-260.272-276.976-469.328 21.312-81.072 68.176-153.6 132.096-204.8 17.040-12.8 46.88-12.8 59.664 8.528 12.784 17.072 12.784 46.928-8.528 59.728-51.136 38.4-85.232 98.128-102.272 157.872-42.608 157.872 55.392 324.272 213.056 362.672 157.664 42.672 323.856-55.472 362.208-213.328 4.256-17.072 21.312-34.128 42.608-34.128h55.392c68.176 0 127.84-38.4 157.664-102.4 17.040-42.672 21.312-89.6 4.256-132.272s-46.88-76.8-89.488-93.872c-21.312-8.528-29.824-34.128-21.312-55.472 8.528-17.072 21.312-25.6 38.352-25.6 4.256 0 12.784 0 17.040 4.272 63.92 25.6 110.8 76.8 136.352 140.8 21.312 68.272 17.040 136.528-8.528 200.528z" />
<glyph unicode="&#xe907;" glyph-name="cloud-snow" d="M1006.816 311.568c-25.584-64.016-72.496-115.232-136.448-140.848-4.272-4.272-12.8-4.272-17.056-4.272-17.056 0-34.112 8.528-38.384 25.6-8.528 21.344 0 46.944 21.328 55.488 42.64 17.072 72.496 51.216 89.552 93.888s17.056 89.632-4.272 132.304c-25.584 64.016-85.28 102.432-153.504 102.432h-55.44c-21.328 0-38.384 12.8-42.64 34.144-42.64 157.92-204.688 256.080-362.448 213.408s-255.856-204.864-213.216-362.784c17.056-64.016 51.168-119.504 102.336-157.92 17.056-12.8 21.328-42.672 8.528-59.744s-42.64-21.344-59.696-8.528c-63.968 51.216-110.864 123.776-132.192 204.864-55.44 204.864 68.224 414 272.912 465.216 196.144 51.216 392.304-59.76 456.272-243.28h25.584c102.336 0 191.888-59.76 234.528-153.648 25.584-64.016 29.856-132.304 4.272-196.336zM371.44 307.296c-17.056 17.072-42.64 17.072-59.696 0-4.272-4.272-8.528-8.528-8.528-12.8-4.272-4.272-4.272-12.8-4.272-17.072s0-12.8 4.272-17.072c4.272-4.272 4.272-8.528 8.528-12.8 8.528-8.528 17.056-12.8 29.856-12.8s21.328 4.272 29.856 12.8c4.272 4.272 8.528 8.528 8.528 12.8 4.272 4.272 4.272 12.8 4.272 17.072s0 12.8-4.272 17.072c0 4.272-4.272 8.528-8.528 12.8zM324.544 145.12c-4.272 0-8.528-4.272-12.8-8.528-8.528-8.528-12.8-17.072-12.8-29.872s4.272-21.344 12.8-29.872c8.528-8.528 17.056-12.8 29.856-12.8s21.328 4.272 29.856 12.8c8.528 8.528 12.8 17.072 12.8 29.872s-4.272 21.344-12.8 29.872c-12.8 12.8-29.856 17.072-46.912 8.528zM482.32 221.936c-4.272-4.272-8.528-8.528-8.528-12.8s-4.272-8.528-4.272-17.072c0-12.8 4.272-21.344 12.8-29.872 4.272-4.272 8.528-8.528 12.8-8.528s8.528-4.272 17.056-4.272c12.8 0 21.328 4.272 29.856 12.8s12.8 17.072 12.8 29.872c0 12.8-4.272 21.344-12.8 29.872-17.056 17.072-42.64 17.072-59.696 0zM542.016 51.216c-17.056 17.072-46.912 17.072-59.696 0-4.272-4.272-8.528-8.528-8.528-12.8-4.272-4.272-4.272-12.8-4.272-17.072 0-12.8 4.272-21.344 12.8-29.872s17.056-12.8 29.856-12.8c4.272 0 12.8 0 17.056 4.272s8.528 4.272 12.8 8.528c8.528 8.528 12.8 17.072 12.8 29.872 0 4.272 0 12.8-4.272 17.072 0 4.272-4.272 8.528-8.528 12.8zM712.576 307.296c-17.056 17.072-42.64 17.072-59.696 0-4.272-4.272-8.528-8.528-8.528-12.8s-4.272-12.8-4.272-17.072c0-4.272 0-12.8 4.272-17.072s4.272-8.528 8.528-12.8c8.528-8.528 17.056-12.8 29.856-12.8s21.328 4.272 29.856 12.8c8.528 8.528 12.8 17.072 12.8 29.872 0 4.272 0 12.8-4.272 17.072 0 4.272-4.272 8.528-8.528 12.8zM708.32 140.848c-4.272 0-4.272 4.272-8.528 4.272s-4.272 0-8.528 4.272c-12.8 4.272-29.856 0-38.384-12.8-8.528-8.528-12.8-17.072-12.8-29.872s4.272-21.344 12.8-29.872c8.528-8.528 17.056-12.8 29.856-12.8s21.328 4.272 29.856 12.8c8.528 8.528 12.8 17.072 12.8 29.872s-4.272 21.344-12.8 29.872c0 4.272-4.272 4.272-4.272 4.272z" />
<glyph unicode="&#xe908;" glyph-name="cloud-upload" d="M1015.344 291.584c-21.248-64.352-63.728-120.112-123.216-154.432-8.496-4.288-12.752-4.288-21.248-4.288-16.992 0-29.744 8.576-38.24 21.44-12.752 21.44-4.256 47.184 16.992 60.048 38.24 21.44 67.984 60.048 80.736 102.944s8.496 90.080-12.752 128.688c-29.744 55.76-84.976 90.080-148.704 90.080h-55.232c-21.248 0-38.24 12.864-42.496 30.032-42.496 158.72-203.952 257.376-361.152 214.48-76.48-17.152-140.208-64.336-178.448-132.976-42.496-72.928-55.232-150.128-33.984-231.632 12.752-47.184 33.984-90.080 63.728-124.4 16.992-17.152 12.752-42.896-4.256-60.048s-42.496-12.864-59.488 4.288c-38.24 47.184-67.984 98.656-84.976 158.72-25.488 98.656-12.752 201.616 42.496 291.696s135.968 150.128 233.696 175.872c191.2 51.472 390.896-60.048 454.64-244.512h25.488c93.472 0 178.448-51.472 225.2-132.976 29.744-55.76 38.24-128.688 21.248-193.024zM543.712 480.32c-4.256 4.288-8.496 8.576-12.752 8.576-8.496 4.288-21.248 4.288-33.984 0-4.256-4.288-8.496-4.288-12.752-8.576l-169.952-171.584c-16.992-17.152-16.992-42.896 0-60.048s42.496-17.152 59.488 0l97.728 98.656v-283.12c0-25.744 16.992-42.896 42.496-42.896s42.496 17.152 42.496 42.896v283.12l97.728-98.656c8.496-8.576 21.248-12.864 29.744-12.864s21.248 4.288 29.744 12.864c16.992 17.152 16.992 42.896 0 60.048l-169.952 171.584z" />
<glyph unicode="&#xe909;" glyph-name="cloud" d="M768 576h-21.328c-29.872 85.328-89.6 157.872-166.4 204.8-89.6 51.2-192 68.272-290.128 42.672-102.4-29.872-183.472-93.872-238.928-179.2-51.2-89.6-68.272-192-42.672-290.128 42.672-170.672 196.272-290.128 371.2-290.128 0 0 0 0 0 0h384c140.8 0 256 115.2 256 256s-110.928 256-251.728 256zM768 149.328h-384c0 0 0 0 0 0-136.528 0-256 93.872-290.128 221.872-21.328 81.072-8.528 157.872 34.128 230.4s106.672 119.472 183.472 136.528c21.328 4.272 46.928 8.528 72.528 8.528 132.272 0 256-89.6 290.128-226.128 4.272-17.072 21.328-34.128 42.672-34.128h51.2c93.872 0 170.672-76.8 170.672-170.672s-76.8-166.4-170.672-166.4z" />
<glyph unicode="&#xe90a;" glyph-name="code" d="M968.528 418.128l-256-256c-8.528-8.528-17.072-12.8-29.872-12.8s-21.328 4.272-29.872 12.8c-17.072 17.072-17.072 42.672 0 59.728l226.128 226.128-226.128 226.128c-17.072 17.072-17.072 42.672 0 59.728s42.672 17.072 59.728 0l256-256c17.072-17.072 17.072-42.672 0-59.728zM371.2 733.872c-17.072 17.072-42.672 17.072-59.728 0l-256-256c-17.072-17.072-17.072-42.672 0-59.728l256-256c8.528-8.528 17.072-12.8 29.872-12.8s21.328 4.272 29.872 12.8c17.072 17.072 17.072 42.672 0 59.728l-226.128 226.128 226.128 226.128c17.072 17.072 17.072 42.672 0 59.728z" />
<glyph unicode="&#xe90b;" glyph-name="codepen" d="M981.328 290.128c0 4.272 0 4.272 0 8.528v298.672c0 4.272 0 4.272 0 8.528 0 0 0 0 0 4.272s-4.272 8.528-4.272 12.8c0 0 0 0 0 0s0 0 0 0c-4.272 4.272-4.272 8.528-8.528 8.528 0 0 0 0 0 0l-426.672 277.328c0 0-4.272 0-4.272 0s-4.272 0-4.272 0c-8.528 4.272-21.328 4.272-29.872 0 0 0-4.272 0-4.272 0s-4.272 0-4.272 0l-426.672-277.328c0 0 0 0 0 0-8.528 0-12.8-4.272-17.072-8.528 0 0 0 0 0 0s0 0 0 0c-4.272-8.528-4.272-12.8-8.528-17.072 0 0 0 0 0-4.272s0-4.272 0-8.528v-298.672c0-4.272 0-4.272 0-8.528 0 0 0 0 0-4.272s4.272-8.528 4.272-12.8c0 0 0 0 0 0s0 0 0 0c4.272-4.272 4.272-8.528 8.528-8.528l426.672-277.328c0 0 4.272 0 4.272 0s4.272 0 4.272 0 8.528-4.272 12.8-4.272c4.272 0 8.528 0 12.8 4.272 0 0 4.272 0 4.272 0s4.272 0 4.272 0l426.672 277.328c4.272 4.272 8.528 8.528 12.8 8.528 0 0 0 0 0 0s0 0 0 0c12.8 12.8 12.8 17.072 17.072 21.328 0 0 0 0 0 0zM128 516.272l98.128-68.272-98.128-68.272v136.528zM512 349.872l-140.8 98.128 140.8 98.128 140.8-98.128-140.8-98.128zM554.672 618.672v179.2l307.2-200.528-136.528-98.128-170.672 119.472zM469.328 618.672l-170.672-119.472-136.528 98.128 307.2 200.528v-179.2zM298.672 396.8l170.672-119.472v-174.928l-307.2 200.528 136.528 93.872zM554.672 277.328l170.672 119.472 136.528-93.872-307.2-204.8v179.2zM797.872 448l98.128 68.272v-136.528l-98.128 68.272z" />
<glyph unicode="&#xe90c;" glyph-name="command" d="M768 362.672h-85.328v170.672h85.328c93.872 0 170.672 76.8 170.672 170.672s-76.8 170.672-170.672 170.672c-93.872 0-170.672-76.8-170.672-170.672v-85.328h-170.672v85.328c0 93.872-76.8 170.672-170.672 170.672s-170.672-76.8-170.672-170.672c0-93.872 76.8-170.672 170.672-170.672h85.328v-170.672h-85.328c-93.872 0-170.672-76.8-170.672-170.672s76.8-170.672 170.672-170.672c93.872 0 170.672 76.8 170.672 170.672v85.328h170.672v-85.328c0-93.872 76.8-170.672 170.672-170.672s170.672 76.8 170.672 170.672c0 93.872-76.8 170.672-170.672 170.672zM682.672 704c0 46.928 38.4 85.328 85.328 85.328s85.328-38.4 85.328-85.328c0-46.928-38.4-85.328-85.328-85.328h-85.328v85.328zM341.328 192c0-46.928-38.4-85.328-85.328-85.328s-85.328 38.4-85.328 85.328c0 46.928 38.4 85.328 85.328 85.328h85.328v-85.328zM341.328 618.672h-85.328c-46.928 0-85.328 38.4-85.328 85.328s38.4 85.328 85.328 85.328c46.928 0 85.328-38.4 85.328-85.328v-85.328zM597.328 362.672h-170.672v170.672h170.672v-170.672zM768 106.672c-46.928 0-85.328 38.4-85.328 85.328v85.328h85.328c46.928 0 85.328-38.4 85.328-85.328s-38.4-85.328-85.328-85.328z" />
<glyph unicode="&#xe90d;" glyph-name="compass" d="M512 917.328c-260.272 0-469.328-209.072-469.328-469.328s209.072-469.328 469.328-469.328c260.272 0 469.328 209.072 469.328 469.328s-209.072 469.328-469.328 469.328zM512 64c-213.328 0-384 170.672-384 384s170.672 384 384 384c213.328 0 384-170.672 384-384s-170.672-384-384-384zM678.4 669.872l-268.8-89.6c-12.8-4.272-25.6-17.072-29.872-29.872l-89.6-273.072c-4.272-17.072 0-34.128 8.528-42.672s17.072-12.8 29.872-12.8c4.272 0 8.528 0 12.8 4.272l273.072 89.6c12.8 4.272 21.328 12.8 25.6 25.6l89.6 273.072c4.272 17.072 0 34.128-8.528 42.672-8.528 12.8-25.6 17.072-42.672 12.8zM567.472 392.528l-170.672-55.472 55.472 170.672 170.672 55.472-55.472-170.672z" />
<glyph unicode="&#xe90e;" glyph-name="copy" d="M853.328 618.672h-384c-72.528 0-128-55.472-128-128v-384c0-72.528 55.472-128 128-128h384c72.528 0 128 55.472 128 128v384c0 72.528-55.472 128-128 128zM896 106.672c0-25.6-17.072-42.672-42.672-42.672h-384c-25.6 0-42.672 17.072-42.672 42.672v384c0 25.6 17.072 42.672 42.672 42.672h384c25.6 0 42.672-17.072 42.672-42.672v-384zM256 320c0-25.6-17.072-42.672-42.672-42.672h-42.672c-72.528 0-128 55.472-128 128v384c0 72.528 55.472 128 128 128h384c72.528 0 128-55.472 128-128v-42.672c0-25.6-17.072-42.672-42.672-42.672s-42.672 17.072-42.672 42.672v42.672c0 25.6-17.072 42.672-42.672 42.672h-384c-25.6 0-42.672-17.072-42.672-42.672v-384c0-25.6 17.072-42.672 42.672-42.672h42.672c25.6 0 42.672-17.072 42.672-42.672z" />
<glyph unicode="&#xe90f;" glyph-name="corner-down-left" d="M896 789.328v-298.672c0-119.472-94-213.328-213.632-213.328h-410.176l140.992-140.8c17.088-17.072 17.088-42.672 0-59.728-8.544-8.528-17.088-12.8-29.904-12.8s-21.36 4.272-29.904 12.8l-213.632 213.328c-4.272 4.272-8.544 8.528-8.544 12.8-4.272 8.528-4.272 21.328 0 34.128 4.272 4.272 4.272 8.528 8.544 12.8l213.632 213.328c17.088 17.072 42.72 17.072 59.824 0s17.088-42.672 0-59.728l-140.992-140.8h410.176c72.64 0 128.176 55.472 128.176 128v298.672c0 25.6 17.088 42.672 42.72 42.672s42.72-17.072 42.72-42.672z" />
<glyph unicode="&#xe910;" glyph-name="corner-down-right" d="M883.2 290.128l-213.328-213.328c-8.528-8.528-17.072-12.8-29.872-12.8s-21.328 4.272-29.872 12.8c-17.072 17.072-17.072 42.672 0 59.728l140.8 140.8h-409.6c-119.472 0-213.328 93.872-213.328 213.328v298.672c0 25.6 17.072 42.672 42.672 42.672s42.672-17.072 42.672-42.672v-298.672c0-72.528 55.472-128 128-128h409.6l-140.8 140.8c-17.072 17.072-17.072 42.672 0 59.728s42.672 17.072 59.728 0l213.328-213.328c4.272-4.272 8.528-8.528 8.528-12.8 4.272-8.528 4.272-21.328 0-34.128 0-4.272-4.272-8.528-8.528-12.8z" />
<glyph unicode="&#xe911;" glyph-name="corner-left-down" d="M896 789.328c0-25.6-17.072-42.672-42.672-42.672h-298.672c-72.528 0-128-55.472-128-128v-409.6l140.8 140.8c17.072 17.072 42.672 17.072 59.728 0s17.072-42.672 0-59.728l-213.328-213.328c-4.272-4.272-8.528-8.528-12.8-8.528-4.272-4.272-12.8-4.272-17.072-4.272s-12.8 0-17.072 4.272c-4.272 4.272-8.528 4.272-12.8 8.528l-213.328 213.328c-17.072 17.072-17.072 42.672 0 59.728s42.672 17.072 59.728 0l140.8-140.8v409.6c0 119.472 93.872 213.328 213.328 213.328h298.672c25.6 0 42.672-17.072 42.672-42.672z" />
<glyph unicode="&#xe912;" glyph-name="corner-left-up" d="M896 107.728c0-25.6-17.072-42.672-42.672-42.672h-298.672c-119.472 0-213.328 93.872-213.328 213.328v409.6l-140.8-140.8c-17.072-17.072-42.672-17.072-59.728 0s-17.072 42.672 0 59.728l213.328 213.328c4.272 4.272 8.528 8.528 12.8 8.528 12.8 4.272 21.328 4.272 34.128 0 4.272-4.272 8.528-4.272 12.8-8.528l213.328-213.328c17.072-17.072 17.072-42.672 0-59.728-8.528-8.528-17.072-12.8-29.872-12.8s-21.328 4.272-29.872 12.8l-140.8 140.8v-409.6c0-72.528 55.472-128 128-128h298.672c25.6 0 42.672-17.072 42.672-42.672z" />
<glyph unicode="&#xe913;" glyph-name="corner-right-down" d="M883.2 290.128l-213.328-213.328c-4.272-4.272-8.528-8.528-12.8-8.528-4.272-4.272-12.8-4.272-17.072-4.272s-12.8 0-17.072 4.272c-4.272 4.272-8.528 4.272-12.8 8.528l-213.328 213.328c-17.072 17.072-17.072 42.672 0 59.728s42.672 17.072 59.728 0l140.8-140.8v409.6c0 72.528-55.472 128-128 128h-298.672c-25.6 0-42.672 17.072-42.672 42.672s17.072 42.672 42.672 42.672h298.672c119.472 0 213.328-93.872 213.328-213.328v-409.6l140.8 140.8c17.072 17.072 42.672 17.072 59.728 0s17.072-42.672 0-59.728z" />
<glyph unicode="&#xe914;" glyph-name="corner-right-up" d="M883.2 547.2c-8.528-8.528-17.072-12.8-29.872-12.8s-21.328 4.272-29.872 12.8l-140.8 140.8v-409.6c0-119.472-93.872-213.328-213.328-213.328h-298.672c-25.6 0-42.672 17.072-42.672 42.672s17.072 42.672 42.672 42.672h298.672c72.528 0 128 55.472 128 128v409.6l-140.8-140.8c-17.072-17.072-42.672-17.072-59.728 0s-17.072 42.672 0 59.728l213.328 213.328c4.272 4.272 8.528 8.528 12.8 8.528 8.528 4.272 21.328 4.272 34.128 0 4.272-4.272 8.528-4.272 12.8-8.528l213.328-213.328c17.072-17.072 17.072-42.672 0-59.728z" />
<glyph unicode="&#xe915;" glyph-name="cpu" d="M640 618.672h-256c-25.6 0-42.672-17.072-42.672-42.672v-256c0-25.6 17.072-42.672 42.672-42.672h256c25.6 0 42.672 17.072 42.672 42.672v256c0 25.6-17.072 42.672-42.672 42.672zM597.328 362.672h-170.672v170.672h170.672v-170.672zM981.328 405.328h-85.328v128h85.328c25.6 0 42.672 17.072 42.672 42.672s-17.072 42.672-42.672 42.672h-85.328v85.328c0 72.528-55.472 128-128 128h-85.328v85.328c0 25.6-17.072 42.672-42.672 42.672s-42.672-17.072-42.672-42.672v-85.328h-170.672v85.328c0 25.6-17.072 42.672-42.672 42.672s-42.672-17.072-42.672-42.672v-85.328h-85.328c-72.528 0-128-55.472-128-128v-85.328h-85.328c-25.6 0-42.672-17.072-42.672-42.672s17.072-42.672 42.672-42.672h85.328v-128h-85.328c-25.6 0-42.672-17.072-42.672-42.672s17.072-42.672 42.672-42.672h85.328v-128c0-72.528 55.472-128 128-128h85.328v-85.328c0-25.6 17.072-42.672 42.672-42.672s42.672 17.072 42.672 42.672v85.328h170.672v-85.328c0-25.6 17.072-42.672 42.672-42.672s42.672 17.072 42.672 42.672v85.328h85.328c72.528 0 128 55.472 128 128v128h85.328c25.6 0 42.672 17.072 42.672 42.672s-17.072 42.672-42.672 42.672zM810.672 192c0-25.6-17.072-42.672-42.672-42.672h-512c-25.6 0-42.672 17.072-42.672 42.672v512c0 25.6 17.072 42.672 42.672 42.672h512c25.6 0 42.672-17.072 42.672-42.672v-512z" />
<glyph unicode="&#xe916;" glyph-name="credit-card" d="M896 832h-768c-72.528 0-128-55.472-128-128v-512c0-72.528 55.472-128 128-128h768c72.528 0 128 55.472 128 128v512c0 72.528-55.472 128-128 128zM128 746.672h768c25.6 0 42.672-17.072 42.672-42.672v-128h-853.328v128c0 25.6 17.072 42.672 42.672 42.672zM896 149.328h-768c-25.6 0-42.672 17.072-42.672 42.672v298.672h853.328v-298.672c0-25.6-17.072-42.672-42.672-42.672z" />
<glyph unicode="&#xe917;" glyph-name="crop" d="M981.328 234.672h-170.672v384c0 72.528-55.472 128-128 128l-379.728-4.272v174.928c0 25.6-17.072 42.672-42.672 42.672 0 0 0 0 0 0-21.328 0-42.672-17.072-42.672-42.672v-174.928h-174.928c-25.6 0-42.672-21.328-42.672-42.672s21.328-42.672 42.672-42.672c0 0 0 0 0 0h174.928l-4.272-379.728c0-72.528 55.472-128 128-128h384v-170.672c0-25.6 17.072-42.672 42.672-42.672s42.672 17.072 42.672 42.672v170.672h170.672c25.6 0 42.672 17.072 42.672 42.672s-17.072 42.672-42.672 42.672zM341.328 234.672c-25.6 0-42.672 17.072-42.672 42.672l4.272 379.728 379.728 4.272c25.6 0 42.672-17.072 42.672-42.672v-384h-384z" />
<glyph unicode="&#xe918;" glyph-name="crosshair" d="M512 917.328c-260.272 0-469.328-209.072-469.328-469.328s209.072-469.328 469.328-469.328c260.272 0 469.328 209.072 469.328 469.328s-209.072 469.328-469.328 469.328zM554.672 68.272v123.728c0 25.6-17.072 42.672-42.672 42.672s-42.672-17.072-42.672-42.672v-123.728c-179.2 21.328-320 162.128-337.072 337.072h123.728c25.6 0 42.672 17.072 42.672 42.672s-17.072 42.672-42.672 42.672h-123.728c17.072 179.2 157.872 320 337.072 337.072v-123.728c0-25.6 17.072-42.672 42.672-42.672s42.672 17.072 42.672 42.672v123.728c179.2-21.328 320-162.128 337.072-337.072h-123.728c-25.6 0-42.672-17.072-42.672-42.672s17.072-42.672 42.672-42.672h123.728c-17.072-179.2-157.872-320-337.072-337.072z" />
<glyph unicode="&#xe919;" glyph-name="dashboard-a" d="M501.44 234.672l81.232 151.424c7.904 24.352 29.392 35.312 53.712 27.408s35.248-29.392 27.344-53.744l-90.816-169.296c5.392-10.768 8.432-22.928 8.432-35.792 0-44.176-35.824-80-80-80s-80 35.824-80 80c0 44.176 35.824 80 80 80 0.032 0 0.064 0 0.096 0zM213.328 72.304c-43.6-0.016-79.808-0.016-104.464-0.016-48.64 73.984-76.88 162.72-76.88 258.368 0 260.272 209.072 469.328 469.328 469.328s469.328-209.072 469.328-469.328c0-94.496-27.552-182.24-75.12-255.68-18.8-0.56-57.376-1.008-108.032-1.344 60.928 67.872 97.808 157.84 97.808 257.024 0 213.328-170.672 384-384 384s-384-170.672-384-384c0-98.688 36.528-188.24 96.896-256h-0.896v-2.352zM501.328 586.672c-26.512 0-48 21.488-48 48s21.488 48 48 48c26.512 0 48-21.488 48-48s-21.488-48-48-48zM261.328 426.672c-26.512 0-48 21.488-48 48s21.488 48 48 48c26.512 0 48-21.488 48-48s-21.488-48-48-48zM741.328 426.672c-26.512 0-48 21.488-48 48s21.488 48 48 48c26.512 0 48-21.488 48-48s-21.488-48-48-48z" />
<glyph unicode="&#xe91a;" glyph-name="database" d="M512 917.328c-204.8 0-426.672-55.472-426.672-170.672v-597.328c0-115.2 221.872-170.672 426.672-170.672s426.672 55.472 426.672 170.672v597.328c0 115.2-221.872 170.672-426.672 170.672zM853.328 448c0-21.328-106.672-85.328-341.328-85.328s-341.328 64-341.328 85.328v192c81.072-42.672 213.328-64 341.328-64s260.272 21.328 341.328 64v-192zM512 832c221.872 0 341.328-64 341.328-85.328s-119.472-85.328-341.328-85.328c-221.872 0-341.328 64-341.328 85.328s119.472 85.328 341.328 85.328zM512 64c-234.672 0-341.328 64-341.328 85.328v192c81.072-42.672 213.328-64 341.328-64s260.272 21.328 341.328 64v-192c0-21.328-106.672-85.328-341.328-85.328z" />
<glyph unicode="&#xe91b;" glyph-name="delete" d="M896.128 832h-554.096c-12.784 0-25.568-4.272-34.096-12.8l-298.352-341.328c-12.784-17.072-12.784-38.4 0-55.472l298.352-341.328c8.528-12.8 21.312-17.072 34.096-17.072h554.096c72.464 0 127.872 55.472 127.872 128v512c0 72.528-55.408 128-127.872 128zM938.752 192c0-25.6-17.056-42.672-42.624-42.672h-532.784l-260 298.672 260 298.672h532.784c25.568 0 42.624-17.072 42.624-42.672v-512zM798.096 546.128l-98.032-98.128 98.032-98.128c17.056-17.072 17.056-42.672 0-59.728-8.528-8.528-17.056-12.8-29.84-12.8s-21.312 4.272-29.84 12.8l-98.032 98.128-98.032-98.128c-8.528-8.528-17.056-12.8-29.84-12.8s-21.312 4.272-29.84 12.8c-17.056 17.072-17.056 42.672 0 59.728l98.032 98.128-98.032 98.128c-17.056 17.072-17.056 42.672 0 59.728s42.624 17.072 59.664 0l98.032-98.128 98.032 98.128c17.056 17.072 42.624 17.072 59.664 0s17.056-42.672 0-59.728z" />
<glyph unicode="&#xe91c;" glyph-name="density-comfy" d="M938.672 448c0-25.6-17.072-42.672-42.672-42.672h-768c-25.6 0-42.672 17.072-42.672 42.672s17.072 42.672 42.672 42.672h768c25.6 0 42.672-17.072 42.672-42.672zM128 693.328h768c25.6 0 42.672 17.072 42.672 42.672s-17.072 42.672-42.672 42.672h-768c-25.6 0-42.672-17.072-42.672-42.672s17.072-42.672 42.672-42.672zM896 202.672h-768c-25.6 0-42.672-17.072-42.672-42.672s17.072-42.672 42.672-42.672h768c25.6 0 42.672 17.072 42.672 42.672s-17.072 42.672-42.672 42.672z" />
<glyph unicode="&#xe91d;" glyph-name="density-cozy" d="M938.672 448c0-25.6-17.072-42.672-42.672-42.672h-768c-25.6 0-42.672 17.072-42.672 42.672s17.072 42.672 42.672 42.672h768c25.6 0 42.672-17.072 42.672-42.672zM128 629.328h768c25.6 0 42.672 17.072 42.672 42.672s-17.072 42.672-42.672 42.672h-768c-25.6 0-42.672-17.072-42.672-42.672s17.072-42.672 42.672-42.672zM896 266.672h-768c-25.6 0-42.672-17.072-42.672-42.672s17.072-42.672 42.672-42.672h768c25.6 0 42.672 17.072 42.672 42.672s-17.072 42.672-42.672 42.672z" />
<glyph unicode="&#xe91e;" glyph-name="density-cramped" d="M938.672 448c0-25.6-17.072-42.672-42.672-42.672h-768c-25.6 0-42.672 17.072-42.672 42.672s17.072 42.672 42.672 42.672h768c25.6 0 42.672-17.072 42.672-42.672zM128 565.328h768c25.6 0 42.672 17.072 42.672 42.672s-17.072 42.672-42.672 42.672h-768c-25.6 0-42.672-17.072-42.672-42.672s17.072-42.672 42.672-42.672zM896 330.672h-768c-25.6 0-42.672-17.072-42.672-42.672s17.072-42.672 42.672-42.672h768c25.6 0 42.672 17.072 42.672 42.672s-17.072 42.672-42.672 42.672z" />
<glyph unicode="&#xe91f;" glyph-name="desk-phone" d="M869.888 364.416c-38.576 4.288-77.152 12.864-111.44 25.712-47.152 17.152-98.576 4.288-137.152-30l-30-30c-77.152 51.44-145.728 115.728-197.168 197.168l30 30c34.288 34.288 47.152 90.016 30 137.152-12.864 34.288-21.424 72.864-25.712 111.44-8.576 64.288-64.288 111.44-128.592 111.44 0 0 0 0 0 0h-128.592c-4.288 0-8.576 0-12.864 0-34.288-4.288-64.288-21.424-85.728-47.152s-30-60-30-94.288c12.864-137.152 64.288-274.32 137.152-390.032 68.576-107.152 162.88-201.456 270.032-270.032 115.728-77.152 252.88-124.304 390.032-137.152 4.288 0 8.576 0 12.864 0 0 0 0 0 0 0 34.288 0 68.576 12.864 90.016 38.576s38.576 55.728 38.576 90.016v128.576c0 64.288-47.152 120.016-111.44 128.592zM895.616 235.84v-128.592c0-12.864-4.288-21.424-12.864-30s-17.152-12.864-34.288-12.864c-124.304 12.864-244.304 55.728-351.456 124.304-98.576 60-180.016 145.728-244.304 244.304-68.576 107.152-111.44 227.168-124.304 351.456 0 12.864 4.288 21.424 8.576 30 8.576 8.576 21.424 17.152 34.288 17.152h128.592c0 0 0 0 0 0 21.424 0 38.576-17.152 42.864-38.576 4.288-42.864 17.152-90.016 34.288-128.592 4.288-17.152 0-34.288-8.576-47.152l-55.712-51.44c-12.864-12.864-17.152-34.288-8.576-51.44 64.288-115.728 158.592-210.016 274.32-274.32 17.152-8.576 38.576-8.576 51.44 8.576l55.728 55.728c12.864 12.864 30 17.152 47.152 8.576 42.864-17.152 85.728-25.712 128.576-34.288 17.152-4.288 34.288-21.424 34.288-42.864 0 0 0 0 0 0z" />
<glyph unicode="&#xe920;" glyph-name="desktop" d="M853.328 874.672h-682.672c-72.528 0-128-55.472-128-128v-426.672c0-72.528 55.472-128 128-128h298.672v-85.328h-128c-25.6 0-42.672-17.072-42.672-42.672s17.072-42.672 42.672-42.672h341.328c25.6 0 42.672 17.072 42.672 42.672s-17.072 42.672-42.672 42.672h-128v85.328h298.672c72.528 0 128 55.472 128 128v426.672c0 72.528-55.472 128-128 128zM896 320c0-25.6-17.072-42.672-42.672-42.672h-682.672c-25.6 0-42.672 17.072-42.672 42.672v426.672c0 25.6 17.072 42.672 42.672 42.672h682.672c25.6 0 42.672-17.072 42.672-42.672v-426.672z" />
<glyph unicode="&#xe921;" glyph-name="disc" d="M512 917.328c-260.272 0-469.328-209.072-469.328-469.328s209.072-469.328 469.328-469.328c260.272 0 469.328 209.072 469.328 469.328s-209.072 469.328-469.328 469.328zM512 64c-213.328 0-384 170.672-384 384s170.672 384 384 384c213.328 0 384-170.672 384-384s-170.672-384-384-384zM512 618.672c-93.872 0-170.672-76.8-170.672-170.672s76.8-170.672 170.672-170.672c93.872 0 170.672 76.8 170.672 170.672s-76.8 170.672-170.672 170.672zM512 362.672c-46.928 0-85.328 38.4-85.328 85.328s38.4 85.328 85.328 85.328c46.928 0 85.328-38.4 85.328-85.328s-38.4-85.328-85.328-85.328z" />
<glyph unicode="&#xe922;" glyph-name="disney" d="M425.728 612.032c-0.336 0.352-1.264 0.272-2.832 0.352-0.576 0.032-0.576-0.192-0.16-0.72l2.992 0.368zM658.848 317.936c-0.080 0.144-0.16 0.24-0.208 0.272 0.016 0 0.080-0.096 0.208-0.272zM94.992 725.872c-0.192-0.176-0.384-0.32-0.24-0.224 0.096 0.096 0.176 0.16 0.24 0.224zM476.768 74.544c-18.688-20.528-66.304-28.512-90.704 5.968-9.072 14.016-14.56 34.832-18.224 62.624-58.656 26.592-108.304 59.888-149.216 96.656-25.264 22.704-45.44 45.6-52.864 56.528-6.864 6.944-13.408 16.336-17.456 28.608-7.008 21.168-3.216 43.808 14.272 65.488 29.84 35.616 119.552 71.264 210.464 87.664 3.776 66.688 11.728 118.384 22.528 143.488 6.288 14.688 15.712 23.456 28.944 22.784 9.968-0.512 17.616-6.032 25.808-15.456 3.296-3.792 6.256-7.696 10.944-14.224 2.288-3.2 3.408-4.752 4.112-5.744 12.4-15.792 20.304-66.032 22.24-120.448 46.080 1.2 80-2.448 141.152-13.76 90.624-14.88 152.64-61.216 147.264-117.76-4.096-45.92-44.112-77.376-78.8-80.048-6-0.464-12.576 0.176-19.776 1.68-5.184 1.072-10.56 2.576-16.048 4.384-6.704 2.208-12.256 4.432-15.76 5.984-18.352 8.192-24.32 25.696-9.264 39.008 5.92 5.232 13.168 8.752 29.248 15.392 9.696 4.528 10.016 5.072 10.432 3.456-4.464 13.088-93.856 30.032-192 31.744 0.304-46.192 1.76-113.696 3.584-175.936 23.312-3.776 46.048-6.192 67.744-7.472 17.584-1.040 32.304-1.216 43.456-0.912 1.664 0.048 2.816 0.096 3.648 0.128 1.968 0.048 5.856 0.24 11.376 0.64 9.312 0.672 19.712 1.696 30.912 3.168 31.984 4.192 63.936 11.024 93.6 21.056 79.328 26.832 126.56 70.56 129.552 135.104 6.96 138.832-226.064 304-468.608 363.152-89.792 22.64-168.912 30.096-236.32 26.144-17.904-1.056-34.464-2.976-48.384-5.216 2.56-1.712 4.72-3.728 6.464-6.128 8.032-11.040 4.128-21.84-3.936-29.552-2.144-2.048-4.176-3.52-5.872-4.528l-3.232-1.488c-40.816-13.456-89.392-6.496-101.904 18.64-7.92 15.568-8.608 29.584 0.816 44.192 4.432 6.88 7.392 9.904 21.744 23.328 65.024 73.008 347.136 69.552 618.672-43.92 244.912-118.832 355.904-273.904 346.288-389.536-8.16-110.352-67.296-193.488-222.304-238.624-96.416-28.016-195.792-26.784-283.776-7.344-2.032-14.976-5.168-23.584-10.752-28.912zM203.36 366.464c0.416 1.040 0.544 0.96 0.912 0.464 0.64-0.88 1.28-1.536 1.392-1.632 50.496-43.456 113.6-76.112 185.776-99.040 4.512 52.944 5.824 85.52 5.872 126.064 0 2.56 0 4.784 0 7.984-86.752-5.648-150.432-16.992-186.608-30.096-4.192-1.584-6.464-2.96-7.344-3.744z" />
<glyph unicode="&#xe923;" glyph-name="dollar" d="M618.672 490.672h-64v213.328h170.672c25.6 0 42.672 17.072 42.672 42.672s-17.072 42.672-42.672 42.672h-170.672v128c0 25.6-17.072 42.672-42.672 42.672s-42.672-17.072-42.672-42.672v-128h-64c-106.672 0-192-85.328-192-192s85.328-192 192-192h64v-213.328h-213.328c-25.6 0-42.672-17.072-42.672-42.672s17.072-42.672 42.672-42.672h213.328v-128c0-25.6 17.072-42.672 42.672-42.672s42.672 17.072 42.672 42.672v128h64c106.672 0 192 85.328 192 192s-85.328 192-192 192zM405.328 490.672c-59.728 0-106.672 46.928-106.672 106.672s46.928 106.672 106.672 106.672h64v-213.328h-64zM618.672 192h-64v213.328h64c59.728 0 106.672-46.928 106.672-106.672s-46.928-106.672-106.672-106.672z" />
<glyph unicode="&#xe924;" glyph-name="download-b" d="M482.128 247.472l-170.672 170.672c-17.072 17.072-17.072 42.672 0 59.728s42.672 17.072 59.728 0l98.128-98.128v494.928c0 25.6 17.072 42.672 42.672 42.672s42.672-17.072 42.672-42.672v-494.928l98.128 98.128c17.072 17.072 42.672 17.072 59.728 0s17.072-42.672 0-59.728l-170.672-170.672c-4.272-4.272-8.528-4.272-12.8-8.528s-12.8-4.272-17.072-4.272c-4.272 0-12.8 0-17.072 4.272-4.272 0-8.528 4.272-12.8 8.528zM917.328 32c0-25.6-17.072-42.672-42.672-42.672h-736c-25.6 0-42.672 17.072-42.672 42.672s17.072 42.672 42.672 42.672h736c25.6 0 42.672-17.072 42.672-42.672z" />
<glyph unicode="&#xe925;" glyph-name="download" d="M938.672 234.672v-128c0-72.528-55.472-128-128-128h-597.328c-72.528 0-128 55.472-128 128v128c0 25.6 17.072 42.672 42.672 42.672s42.672-17.072 42.672-42.672v-128c0-25.6 17.072-42.672 42.672-42.672h597.328c25.6 0 42.672 17.072 42.672 42.672v128c0 25.6 17.072 42.672 42.672 42.672s42.672-17.072 42.672-42.672zM482.128 247.472c4.272-4.272 8.528-8.528 12.8-8.528 4.272-4.272 12.8-4.272 17.072-4.272s12.8 0 17.072 4.272c4.272 4.272 8.528 4.272 12.8 8.528l170.672 170.672c17.072 17.072 17.072 42.672 0 59.728s-42.672 17.072-59.728 0l-98.128-98.128v494.928c0 25.6-17.072 42.672-42.672 42.672s-42.672-17.072-42.672-42.672v-494.928l-98.128 98.128c-17.072 17.072-42.672 17.072-59.728 0s-17.072-42.672 0-59.728l170.672-170.672z" />
<glyph unicode="&#xe926;" glyph-name="drag" d="M969.568 418.64l-128.288-128.144c-8.56-8.544-17.104-12.816-29.936-12.816s-21.376 4.272-29.936 12.816c-17.104 17.088-17.104 42.72 0 59.808l55.6 55.536h-282.24v-281.92l55.6 55.536c17.104 17.088 42.768 17.088 59.872 0s17.104-42.72 0-59.808l-128.288-128.144c-4.272-4.272-8.56-8.544-12.832-8.544-4.272-4.272-12.832-4.272-17.104-4.272s-12.832 0-17.104 4.272c-4.272 4.272-8.56 4.272-12.832 8.544l-128.288 128.144c-17.104 17.088-17.104 42.72 0 59.808s42.768 17.088 59.872 0l55.6-55.536v281.92h-282.24l55.6-55.536c17.104-17.088 17.104-42.72 0-59.808-8.56-8.544-17.104-12.816-29.936-12.816s-21.376 4.272-29.936 12.816l-128.288 128.144c-4.272 4.272-8.56 8.544-8.56 12.816-4.272 8.544-4.272 21.36 0 34.176 4.272 4.272 4.272 8.544 8.56 12.816l128.288 128.144c17.104 17.088 42.768 17.088 59.872 0s17.104-42.72 0-59.808l-55.6-55.536h282.24v281.92l-55.6-55.536c-17.104-17.088-42.768-17.088-59.872 0s-17.104 42.72 0 59.808l128.288 128.144c4.272 4.272 8.56 8.544 12.832 8.544 8.56 4.272 21.376 4.272 34.208 0 4.272-4.272 8.56-4.272 12.832-8.544l128.288-128.144c17.104-17.088 17.104-42.72 0-59.808-8.56-8.544-17.104-12.816-29.936-12.816s-21.376 4.272-29.936 12.816l-55.6 55.536v-281.92h282.24l-55.6 55.536c-17.104 17.088-17.104 42.72 0 59.808s42.768 17.088 59.872 0l128.288-128.144c4.272-4.272 8.56-8.544 8.56-12.816 4.272-8.544 4.272-21.36 0-34.176 0-4.272-4.272-8.544-8.56-12.816z" />
<glyph unicode="&#xe927;" glyph-name="droplet" d="M785.072 665.6l-243.2 238.928c-8.528 8.528-17.072 12.8-29.872 12.8s-21.328-4.272-29.872-12.8l-238.928-238.928c0 0 0 0 0 0-76.8-72.528-115.2-170.672-115.2-273.072s38.4-200.528 110.928-273.072c72.528-72.528 170.672-110.928 273.072-110.928 0 0 0 0 0 0 102.4 0 200.528 38.4 273.072 110.928 149.328 149.328 149.328 392.528 0 546.128zM725.328 179.2c-59.728-55.472-132.272-85.328-213.328-85.328 0 0 0 0 0 0-81.072 0-153.6 29.872-209.072 85.328-59.728 59.728-89.6 132.272-89.6 213.328s29.872 153.6 85.328 209.072c0 0 0 0 0 0l209.072 213.328 213.328-213.328c119.472-115.2 119.472-302.928 4.272-422.4z" />
<glyph unicode="&#xe928;" glyph-name="edit-3" d="M128 192h170.672c12.8 0 21.328 4.272 29.872 12.8l469.328 469.328c17.072 17.072 17.072 42.672 0 59.728l-170.672 170.672c-17.072 17.072-42.672 17.072-59.728 0l-469.328-469.328c-8.528-8.528-12.8-17.072-12.8-29.872v-170.672c0-25.6 17.072-42.672 42.672-42.672zM170.672 388.272l426.672 426.672 110.928-110.928-426.672-426.672h-110.928v110.928zM938.672 21.328c0-25.6-17.072-42.672-42.672-42.672h-768c-25.6 0-42.672 17.072-42.672 42.672s17.072 42.672 42.672 42.672h768c25.6 0 42.672-17.072 42.672-42.672z" />
<glyph unicode="&#xe929;" glyph-name="edit-alt" d="M925.872 648.528l-213.328 213.328c-17.072 17.072-42.672 17.072-59.728 0l-554.672-554.672c-8.528-8.528-12.8-17.072-12.8-29.872v-213.328c0-25.6 17.072-42.672 42.672-42.672h213.328c12.8 0 21.328 4.272 29.872 12.8l554.672 554.672c17.072 17.072 17.072 42.672 0 59.728z" />
<glyph unicode="&#xe92a;" glyph-name="edit-page" d="M896 332.8v-226.128c0-72.528-55.472-128-128-128h-597.328c-72.528 0-128 55.472-128 128v597.328c0 72.528 55.472 128 128 128h226.128c25.6 0 42.672-17.072 42.672-42.672s-17.072-42.672-42.672-42.672h-226.128c-25.6 0-42.672-17.072-42.672-42.672v-597.328c0-25.6 17.072-42.672 42.672-42.672h597.328c25.6 0 42.672 17.072 42.672 42.672v226.128c0 25.6 17.072 42.672 42.672 42.672s42.672-17.072 42.672-42.672zM968.528 674.128l-426.672-426.672c-8.528-8.528-17.072-12.8-29.872-12.8h-170.672c-25.6 0-42.672 17.072-42.672 42.672v170.672c0 12.8 4.272 21.328 12.8 29.872l426.672 426.672c17.072 17.072 42.672 17.072 59.728 0l170.672-170.672c17.072-17.072 17.072-42.672 0-59.728zM878.928 704l-110.928 110.928-384-384v-110.928h110.928l384 384z" />
<glyph unicode="&#xe92b;" glyph-name="edit" d="M925.872 648.528l-213.328 213.328c-17.072 17.072-42.672 17.072-59.728 0l-554.672-554.672c-8.528-8.528-12.8-17.072-12.8-29.872v-213.328c0-25.6 17.072-42.672 42.672-42.672h213.328c12.8 0 21.328 4.272 29.872 12.8l554.672 554.672c17.072 17.072 17.072 42.672 0 59.728zM324.272 106.672h-153.6v153.6l512 512 153.6-153.6-512-512z" />
<glyph unicode="&#xe92c;" glyph-name="ellipse-a" d="M597.328 448c0-46.928-38.4-85.328-85.328-85.328s-85.328 38.4-85.328 85.328c0 46.928 38.4 85.328 85.328 85.328s85.328-38.4 85.328-85.328zM810.672 533.328c-46.928 0-85.328-38.4-85.328-85.328s38.4-85.328 85.328-85.328c46.928 0 85.328 38.4 85.328 85.328s-38.4 85.328-85.328 85.328zM213.328 533.328c-46.928 0-85.328-38.4-85.328-85.328s38.4-85.328 85.328-85.328c46.928 0 85.328 38.4 85.328 85.328s-38.4 85.328-85.328 85.328z" />
<glyph unicode="&#xe92d;" glyph-name="ellipse-b" d="M597.328 448c0-46.928-38.4-85.328-85.328-85.328s-85.328 38.4-85.328 85.328c0 46.928 38.4 85.328 85.328 85.328s85.328-38.4 85.328-85.328zM512 661.328c46.928 0 85.328 38.4 85.328 85.328s-38.4 85.328-85.328 85.328c-46.928 0-85.328-38.4-85.328-85.328s38.4-85.328 85.328-85.328zM512 234.672c-46.928 0-85.328-38.4-85.328-85.328s38.4-85.328 85.328-85.328c46.928 0 85.328 38.4 85.328 85.328s-38.4 85.328-85.328 85.328z" />
<glyph unicode="&#xe92e;" glyph-name="email" d="M853.328 832h-682.672c-72.528 0-128-55.472-128-128v-512c0-72.528 55.472-128 128-128h682.672c72.528 0 128 55.472 128 128v512c0 72.528-55.472 128-128 128zM170.672 746.672h682.672c17.072 0 29.872-8.528 38.4-25.6l-379.728-264.528-379.728 264.528c8.528 17.072 21.328 25.6 38.4 25.6zM853.328 149.328h-682.672c-25.6 0-42.672 17.072-42.672 42.672v430.928l358.4-251.728c8.528-4.272 17.072-8.528 25.6-8.528s17.072 4.272 25.6 8.528l358.4 251.728v-430.928c0-25.6-17.072-42.672-42.672-42.672z" />
<glyph unicode="&#xe92f;" glyph-name="expand" d="M938.672 832v-256c0-25.6-17.072-42.672-42.672-42.672s-42.672 17.072-42.672 42.672v153.6l-226.128-226.128c-8.528-8.528-17.072-12.8-29.872-12.8s-21.328 4.272-29.872 12.8c-17.072 17.072-17.072 42.672 0 59.728l226.128 226.128h-153.6c-25.6 0-42.672 17.072-42.672 42.672s17.072 42.672 42.672 42.672h256c4.272 0 12.8 0 17.072-4.272 8.528-4.272 17.072-12.8 21.328-21.328 4.272-4.272 4.272-12.8 4.272-17.072zM396.8 392.528l-226.128-226.128v153.6c0 25.6-17.072 42.672-42.672 42.672s-42.672-17.072-42.672-42.672v-256c0-4.272 0-12.8 4.272-17.072 4.272-8.528 12.8-17.072 21.328-21.328 4.272-4.272 12.8-4.272 17.072-4.272h256c25.6 0 42.672 17.072 42.672 42.672s-17.072 42.672-42.672 42.672h-153.6l226.128 226.128c17.072 17.072 17.072 42.672 0 59.728s-42.672 17.072-59.728 0z" />
<glyph unicode="&#xe930;" glyph-name="facebook" d="M766.464 661.328c25.52 0 42.544 17.072 42.544 42.672v170.672c0 25.6-17.008 42.672-42.544 42.672h-127.616c-140.368 0-255.232-115.2-255.232-256v-85.328h-85.072c-25.52 0-42.544-17.072-42.544-42.672v-170.672c0-25.6 17.008-42.672 42.544-42.672h85.072v-298.672c0-25.6 17.008-42.672 42.544-42.672h170.16c25.52 0 42.544 17.072 42.544 42.672v298.672h85.072c21.264 0 38.288 12.8 42.544 34.128l42.544 170.672c4.256 12.8 0 25.6-8.512 38.4s-21.264 12.8-34.032 12.8h-127.616v85.328h127.616zM596.304 490.672h114.848l-21.264-85.328h-93.584c-25.52 0-42.544-17.072-42.544-42.672v-298.672h-85.072v298.672c0 25.6-17.008 42.672-42.544 42.672h-85.072v85.328h85.072c25.52 0 42.544 17.072 42.544 42.672v128c0 93.872 76.576 170.672 170.16 170.672h85.072v-85.328h-85.072c-46.8 0-85.072-38.4-85.072-85.328v-128c0-25.6 17.008-42.672 42.544-42.672z" />
<glyph unicode="&#xe931;" glyph-name="fail" d="M32 447.984c0 265.088 214.912 480.016 479.984 480.016 265.104 0 480.016-214.912 480.016-480.016 0-265.072-214.912-479.984-480.016-479.984-265.072 0-479.984 214.928-479.984 479.984zM113.632 447.76c0-220.080 178.416-398.496 398.544-398.496 220.048 0 398.496 178.448 398.496 398.496 0 220.144-178.432 398.608-398.496 398.608-220.16 0-398.56-178.432-398.56-398.608zM704.48 577.056l-152.32-148.992 152.368-149.056c12.528-12.608 12.512-32.944-0.144-45.552-12.656-12.464-33.056-12.448-45.344 0.096l-149.056 149.872-149.056-149.904c-12.56-12.528-32.912-12.544-45.264-0.080-12.736 12.544-12.752 33.008-0.112 45.584l152.512 149.024-152.464 148.96c-12.656 12.592-12.688 33.008-0.144 45.44 12.496 12.688 32.912 12.704 45.488 0.096l149.040-144.704 148.88 144.512c12.432 12.768 32.896 12.8 45.648 0.16 12.528-12.576 12.528-32.864-0.016-45.488z" />
<glyph unicode="&#xe932;" glyph-name="fast-forward" d="M964.272 481.92l-384 298.496c-12.8 8.528-29.872 12.8-46.928 4.272-12.8-8.528-21.328-21.328-21.328-38.384v-596.992c0-17.056 8.528-29.856 25.6-38.384 4.272-4.272 12.8-4.272 17.072-4.272 8.528 0 17.072 4.272 25.6 8.528l384 298.496c8.528 8.528 17.072 21.328 17.072 34.112s-4.272 25.584-17.072 34.112zM597.328 234.592v426.432l273.072-213.216-273.072-213.216zM110.928 780.416c-12.8 8.528-29.872 12.8-42.672 4.272-17.072-8.528-25.6-21.328-25.6-38.384v-596.992c0-17.056 8.528-29.856 25.6-38.384 4.272-4.272 12.8-4.272 17.072-4.272 8.528 0 17.072 4.272 25.6 8.528l384 298.496c8.528 8.528 17.072 21.328 17.072 34.112s-4.272 25.584-17.072 34.112l-384 298.496zM128 234.592v426.432l273.072-213.216-273.072-213.216z" />
<glyph unicode="&#xe933;" glyph-name="feather" d="M891.728 831.024c-115.2 115.072-307.2 115.072-422.4 0l-285.872-289.808c-8.528-8.528-12.8-17.040-12.8-29.84v-345.216l-115.2-115.072c-17.072-17.040-17.072-42.624 0-59.664 8.528-8.528 17.072-12.784 29.872-12.784s21.328 4.256 29.872 12.784l115.2 115.072h345.6c12.8 0 21.328 4.256 29.872 12.784l285.872 289.808c119.472 115.072 119.472 302.592 0 421.92zM558.928 191.76h-243.2l85.328 85.232h243.2l-85.328-85.232zM832 468.784c0 0 0 0 0 0l-102.4-106.544c0 0 0 0-4.272 0h-238.928l226.128 225.872c17.072 17.040 17.072 42.624 0 59.664s-42.672 17.040-59.728 0l-298.672-298.32c0 0 0 0 0 0l-98.128-98.016v242.928l277.328 277.024c85.328 85.232 217.6 85.232 302.928 0 81.072-85.232 81.072-221.616-4.272-302.592z" />
<glyph unicode="&#xe934;" glyph-name="file-excel" d="M891.728 603.728c-4.272 4.272-4.272 8.528-8.528 12.8l-298.672 298.672c-4.272 4.272-8.528 8.528-12.8 8.528-4.272 4.272-12.8 4.272-17.072 4.272h-298.672c-72.528 0-128-55.472-128-128v-682.672c0-72.528 55.472-128 128-128h512c72.528 0 128 55.472 128 128v469.328c0 4.272 0 12.8-4.272 17.072zM597.328 782.928l153.6-153.6h-153.6v153.6zM768 74.672h-512c-25.6 0-42.672 17.072-42.672 42.672v682.672c0 25.6 17.072 42.672 42.672 42.672h256v-256c0-25.6 17.072-42.672 42.672-42.672h256v-426.672c0-25.6-17.072-42.672-42.672-42.672zM675.216 160h-99.024l-62.592 98.56-62.592-98.56h-99.024l112.304 160-112.304 160h99.024l62.592-98.56 62.592 98.56h99.024l-112.304-160 112.304-160z" />
<glyph unicode="&#xe935;" glyph-name="file-image" d="M891.728 603.728c4.272-4.272 4.272-12.8 4.272-17.072v-469.328c0-72.528-55.472-128-128-128h-512c-72.528 0-128 55.472-128 128v682.672c0 72.528 55.472 128 128 128h298.672c4.272 0 12.8 0 17.072-4.272 4.272 0 8.528-4.272 12.8-8.528l298.672-298.672c4.272-4.272 4.272-8.528 8.528-12.8zM597.328 782.928v-153.6h153.6l-153.6 153.6zM768 74.672c25.6 0 42.672 17.072 42.672 42.672v426.672h-256c-25.6 0-42.672 17.072-42.672 42.672v256h-256c-25.6 0-42.672-17.072-42.672-42.672v-682.672c0-25.6 17.072-42.672 42.672-42.672h512zM259.792 395.296c0 29.104 24.352 52.704 54.384 52.704s54.384-23.6 54.384-52.704c0-29.104-24.352-52.704-54.384-52.704s-54.384 23.6-54.384 52.704zM361.84 175.36c-17.664 0-25.648 13.152-18.16 28.656l103.92 215.312c7.632 15.824 22.624 17.648 33.744 3.712l102.304-128.208 47.968 39.52c13.552 11.168 32.032 7.904 41.072-6.992l75.728-124.8c9.12-15.040 2.048-27.216-15.472-27.216h-371.104z" />
<glyph unicode="&#xe936;" glyph-name="file-minus" d="M891.728 635.728c-4.272 4.272-4.272 8.528-8.528 12.8l-256 256c-4.272 4.272-8.528 8.528-12.8 8.528-4.272 4.272-12.8 4.272-17.072 4.272h-341.328c-72.528 0-128-55.472-128-128v-682.672c0-72.528 55.472-128 128-128h512c72.528 0 128 55.472 128 128v512c0 4.272 0 12.8-4.272 17.072zM640 772.272l110.928-110.928h-110.928v110.928zM768 64h-512c-25.6 0-42.672 17.072-42.672 42.672v682.672c0 25.6 17.072 42.672 42.672 42.672h298.672v-213.328c0-25.6 17.072-42.672 42.672-42.672h213.328v-469.328c0-25.6-17.072-42.672-42.672-42.672zM682.672 320c0-25.6-17.072-42.672-42.672-42.672h-256c-25.6 0-42.672 17.072-42.672 42.672s17.072 42.672 42.672 42.672h256c25.6 0 42.672-17.072 42.672-42.672z" />
<glyph unicode="&#xe937;" glyph-name="file-pdf" d="M891.728 603.728c-4.272 4.272-4.272 8.528-8.528 12.8l-298.672 298.672c-4.272 4.272-8.528 8.528-12.8 8.528-4.272 4.272-12.8 4.272-17.072 4.272h-298.672c-72.528 0-128-55.472-128-128v-682.672c0-72.528 55.472-128 128-128h512c72.528 0 128 55.472 128 128v469.328c0 4.272 0 12.8-4.272 17.072zM597.328 782.928l153.6-153.6h-153.6v153.6zM768 74.672h-512c-25.6 0-42.672 17.072-42.672 42.672v682.672c0 25.6 17.072 42.672 42.672 42.672h256v-256c0-25.6 17.072-42.672 42.672-42.672h256v-426.672c0-25.6-17.072-42.672-42.672-42.672zM615.68 282.096c-3.872 0-8.144-0.208-12.816-0.608 6.912-4.448 12.576-6.528 16.704-6.528 2.88 0 4.944 1.136 7.44 4.736 0.368 0.544 0.704 0.992 0.976 1.376-2.976 0.624-7.088 1.024-12.304 1.024zM495.184 363.568c-8.304-28.112-18.464-57.552-29.376-85.088 23.328 8.832 48.144 16.688 71.696 22.688-14.864 18.32-29.472 39.904-42.32 62.4zM374.448 185.184c-0.144-1.408 0.128-2.528 2.128-4.416 2.128 1.76 6.832 6.56 13.712 16.496 2.816 4.064 5.744 8.672 8.752 13.776-15.904-10.768-23.936-19.872-24.592-25.856zM378.432 179.2c0.16-0.128 0.336-0.256 0.512-0.4-0.048 0.032-0.096 0.080-0.16 0.112l-0.352 0.272zM486.048 485.088c-0.816-3.456-0.8-8.208-0.016-14.016 0.688 7.488 0.56 11.968 0.016 14.016zM486 488.752c-0.192-0.032-0.32-0.064-0.352-0.080 0.336 0.112 0.64 0.24 0.88 0.336l-0.528-0.256zM615.68 336.512c30.192 0 52.432-8.784 63.232-30.384 9.328-18.592 5.76-38.832-7.216-57.488-12.416-17.872-30.96-28.096-52.128-28.096-21.28 0-42.56 10.128-64.4 28.96-29.68-7.296-62.208-18.080-90.256-29.984-10.272-21.504-20.256-39.344-29.904-53.248-18.32-26.432-36.72-40.752-59.696-40.752-10.72 0-21.008 3.568-29.584 10.144-19.696 15.184-27.584 35.264-25.392 55.392 3.616 33.136 33.424 60.704 86.432 87.008 16.832 39.312 32.656 85.52 43.088 125.696-17.856 42.208-24.736 77.088-13.376 104.368 6.528 15.664 15.84 26.64 31.552 32.032 5.808 1.984 16.496 3.824 22.416 3.824 15.536 0 24.544-7.216 34.4-19.696 1.2-1.52 4.432-5.824 4.144-5.456 1.84-2.4 2.816-3.808 4.256-6.368 9.936-17.808 9.68-46.304-2.24-100.592 14.112-28.224 32.224-56.384 50.176-78.192 12.768 1.856 24.288 2.8 34.496 2.8z" />
<glyph unicode="&#xe938;" glyph-name="file-plus" d="M891.728 635.728c-4.272 4.272-4.272 8.528-8.528 12.8l-256 256c-4.272 4.272-8.528 8.528-12.8 8.528-4.272 4.272-12.8 4.272-17.072 4.272h-341.328c-72.528 0-128-55.472-128-128v-682.672c0-72.528 55.472-128 128-128h512c72.528 0 128 55.472 128 128v512c0 4.272 0 12.8-4.272 17.072zM640 772.272l110.928-110.928h-110.928v110.928zM768 64h-512c-25.6 0-42.672 17.072-42.672 42.672v682.672c0 25.6 17.072 42.672 42.672 42.672h298.672v-213.328c0-25.6 17.072-42.672 42.672-42.672h213.328v-469.328c0-25.6-17.072-42.672-42.672-42.672zM682.672 320c0-25.6-17.072-42.672-42.672-42.672h-85.328v-85.328c0-25.6-17.072-42.672-42.672-42.672s-42.672 17.072-42.672 42.672v85.328h-85.328c-25.6 0-42.672 17.072-42.672 42.672s17.072 42.672 42.672 42.672h85.328v85.328c0 25.6 17.072 42.672 42.672 42.672s42.672-17.072 42.672-42.672v-85.328h85.328c25.6 0 42.672-17.072 42.672-42.672z" />
<glyph unicode="&#xe939;" glyph-name="file-text" d="M891.728 635.728c-4.272 4.272-4.272 8.528-8.528 12.8l-256 256c-4.272 4.272-8.528 8.528-12.8 8.528-4.272 4.272-12.8 4.272-17.072 4.272h-341.328c-72.528 0-128-55.472-128-128v-682.672c0-72.528 55.472-128 128-128h512c72.528 0 128 55.472 128 128v512c0 4.272 0 12.8-4.272 17.072zM640 772.272l110.928-110.928h-110.928v110.928zM768 64h-512c-25.6 0-42.672 17.072-42.672 42.672v682.672c0 25.6 17.072 42.672 42.672 42.672h298.672v-213.328c0-25.6 17.072-42.672 42.672-42.672h213.328v-469.328c0-25.6-17.072-42.672-42.672-42.672zM725.328 405.328c0-25.6-17.072-42.672-42.672-42.672h-341.328c-25.6 0-42.672 17.072-42.672 42.672s17.072 42.672 42.672 42.672h341.328c25.6 0 42.672-17.072 42.672-42.672zM725.328 234.672c0-25.6-17.072-42.672-42.672-42.672h-341.328c-25.6 0-42.672 17.072-42.672 42.672s17.072 42.672 42.672 42.672h341.328c25.6 0 42.672-17.072 42.672-42.672zM298.672 576c0 25.6 17.072 42.672 42.672 42.672h85.328c25.6 0 42.672-17.072 42.672-42.672s-17.072-42.672-42.672-42.672h-85.328c-25.6 0-42.672 17.072-42.672 42.672z" />
<glyph unicode="&#xe93a;" glyph-name="film" d="M844.8 917.328h-665.6c-76.8 0-136.528-59.728-136.528-136.528v-665.6c0-76.8 59.728-136.528 136.528-136.528h665.6c76.8 0 136.528 59.728 136.528 136.528v665.6c0 76.8-59.728 136.528-136.528 136.528zM768 618.672h128v-128h-128v128zM682.672 490.672h-341.328v341.328h341.328v-341.328zM256 490.672h-128v128h128v-128zM128 405.328h128v-128h-128v128zM341.328 405.328h341.328v-341.328h-341.328v341.328zM768 405.328h128v-128h-128v128zM896 780.8v-76.8h-128v128h76.8c29.872 0 51.2-21.328 51.2-51.2zM179.2 832h76.8v-128h-128v76.8c0 29.872 21.328 51.2 51.2 51.2zM128 115.2v76.8h128v-128h-76.8c-29.872 0-51.2 21.328-51.2 51.2zM844.8 64h-76.8v128h128v-76.8c0-29.872-21.328-51.2-51.2-51.2z" />
<glyph unicode="&#xe93b;" glyph-name="filter-alt" d="M977.456 849.072c-8.528 17.072-21.328 25.6-38.4 25.6h-853.328c-17.072 0-29.872-8.528-38.4-25.6-8.528-12.8-4.272-29.872 4.272-42.672l332.8-392.528v-264.528c0-17.072 8.528-29.872 25.6-38.4l170.672-85.328c4.272-4.272 8.528-4.272 17.072-4.272s17.072 0 21.328 4.272c12.8 8.528 21.328 21.328 21.328 38.4v349.872l332.8 392.528c8.528 12.8 12.8 29.872 4.272 42.672z" />
<glyph unicode="&#xe93c;" glyph-name="filter" d="M977.456 849.072c-8.528 17.072-21.328 25.6-38.4 25.6h-853.328c-17.072 0-29.872-8.528-38.4-25.6-8.528-12.8-4.272-29.872 4.272-42.672l332.8-392.528v-264.528c0-17.072 8.528-29.872 25.6-38.4l170.672-85.328c4.272-4.272 8.528-4.272 17.072-4.272s17.072 0 21.328 4.272c12.8 8.528 21.328 21.328 21.328 38.4v349.872l332.8 392.528c8.528 12.8 12.8 29.872 4.272 42.672zM563.584 456.528c-4.272-8.528-8.528-17.072-8.528-29.872v-294.4l-85.328 42.672v251.728c0 8.528-4.272 21.328-8.528 25.6l-281.6 337.072h669.872l-285.872-332.8z" />
<glyph unicode="&#xe93d;" glyph-name="first" d="M439.472 418.128l256-256c8.528-8.528 17.072-12.8 29.872-12.8s21.328 4.272 29.872 12.8c17.072 17.072 17.072 42.672 0 59.728l-226.128 226.128 226.128 226.128c17.072 17.072 17.072 42.672 0 59.728s-42.672 17.072-59.728 0l-256-256c-17.072-17.072-17.072-42.672 0-59.728zM256 725.36v-533.040c0-25.584 17.072-42.64 42.672-42.64s42.672 17.056 42.672 42.64v533.040c0 25.584-17.072 42.64-42.672 42.64s-42.672-17.056-42.672-42.64z" />
<glyph unicode="&#xe93e;" glyph-name="flag-alt" d="M870.4 881.6c-17.072 8.432-34.128 4.224-46.928-8.432 0 0-38.4-29.52-140.8-29.52-55.472 0-102.4 21.088-153.6 37.968-55.472 25.312-115.2 46.4-187.728 46.4-136.528 0-192-46.4-200.528-54.832s-12.8-16.88-12.8-29.52v-801.456c0-25.312 17.072-42.176 42.672-42.176s42.672 16.88 42.672 42.176v274.176c17.072 8.432 59.728 21.088 128 21.088 55.472 0 102.4-21.088 153.6-37.968 55.472-21.088 115.2-46.4 187.728-46.4 136.528 0 192 46.4 200.528 54.832s12.8 16.88 12.8 29.52v506.176c0 16.88-8.528 29.52-25.6 37.968z" />
<glyph unicode="&#xe93f;" glyph-name="flag" d="M870.4 870.4c-17.072 8.528-34.128 4.272-46.928-8.528 0 0-38.4-29.872-140.8-29.872-55.472 0-102.4 21.328-153.6 38.4-55.472 25.6-115.2 46.928-187.728 46.928-136.528 0-192-46.928-200.528-55.472s-12.8-17.072-12.8-29.872v-810.672c0-25.6 17.072-42.672 42.672-42.672s42.672 17.072 42.672 42.672v277.328c17.072 8.528 59.728 21.328 128 21.328 55.472 0 102.4-21.328 153.6-38.4 55.472-21.328 115.2-46.928 187.728-46.928 136.528 0 192 46.928 200.528 55.472s12.8 17.072 12.8 29.872v512c0 17.072-8.528 29.872-25.6 38.4zM810.672 341.328c-17.072-8.528-59.728-21.328-128-21.328-55.472 0-102.4 21.328-153.6 38.4-55.472 25.6-115.2 46.928-187.728 46.928-55.472 0-98.128-8.528-128-17.072v422.4c17.072 8.528 59.728 21.328 128 21.328 55.472 0 102.4-21.328 153.6-38.4 55.472-25.6 115.2-46.928 187.728-46.928 55.472 0 98.128 8.528 128 17.072v-422.4z" />
<glyph unicode="&#xe940;" glyph-name="folder-minus" d="M853.328 746.672h-362.672l-72.528 110.928c-8.528 8.528-21.328 17.072-34.128 17.072h-213.328c-72.528 0-128-55.472-128-128v-597.328c0-72.528 55.472-128 128-128h682.672c72.528 0 128 55.472 128 128v469.328c0 72.528-55.472 128-128 128zM896 149.328c0-25.6-17.072-42.672-42.672-42.672h-682.672c-25.6 0-42.672 17.072-42.672 42.672v597.328c0 25.6 17.072 42.672 42.672 42.672h192l72.528-110.928c8.528-8.528 21.328-17.072 34.128-17.072h384c25.6 0 42.672-17.072 42.672-42.672v-469.328zM682.672 362.672c0-25.6-17.072-42.672-42.672-42.672h-256c-25.6 0-42.672 17.072-42.672 42.672s17.072 42.672 42.672 42.672h256c25.6 0 42.672-17.072 42.672-42.672z" />
<glyph unicode="&#xe941;" glyph-name="folder-plus" d="M853.328 746.672h-362.672l-72.528 110.928c-8.528 8.528-21.328 17.072-34.128 17.072h-213.328c-72.528 0-128-55.472-128-128v-597.328c0-72.528 55.472-128 128-128h682.672c72.528 0 128 55.472 128 128v469.328c0 72.528-55.472 128-128 128zM896 149.328c0-25.6-17.072-42.672-42.672-42.672h-682.672c-25.6 0-42.672 17.072-42.672 42.672v597.328c0 25.6 17.072 42.672 42.672 42.672h192l72.528-110.928c8.528-8.528 21.328-17.072 34.128-17.072h384c25.6 0 42.672-17.072 42.672-42.672v-469.328zM682.672 362.672c0-25.6-17.072-42.672-42.672-42.672h-85.328v-85.328c0-25.6-17.072-42.672-42.672-42.672s-42.672 17.072-42.672 42.672v85.328h-85.328c-25.6 0-42.672 17.072-42.672 42.672s17.072 42.672 42.672 42.672h85.328v85.328c0 25.6 17.072 42.672 42.672 42.672s42.672-17.072 42.672-42.672v-85.328h85.328c25.6 0 42.672-17.072 42.672-42.672z" />
<glyph unicode="&#xe942;" glyph-name="folder" d="M853.328 746.672h-362.672l-72.528 110.928c-8.528 8.528-21.328 17.072-34.128 17.072h-213.328c-72.528 0-128-55.472-128-128v-597.328c0-72.528 55.472-128 128-128h682.672c72.528 0 128 55.472 128 128v469.328c0 72.528-55.472 128-128 128zM896 149.328c0-25.6-17.072-42.672-42.672-42.672h-682.672c-25.6 0-42.672 17.072-42.672 42.672v597.328c0 25.6 17.072 42.672 42.672 42.672h192l72.528-110.928c8.528-8.528 21.328-17.072 34.128-17.072h384c25.6 0 42.672-17.072 42.672-42.672v-469.328z" />
<glyph unicode="&#xe943;" glyph-name="forward" d="M128 405.328v-298.672c0-25.6 17.072-42.672 42.672-42.672s42.672 17.072 42.672 42.672v298.672c0 72.528 55.472 128 128 128h409.6l-140.8-140.8c-17.072-17.072-17.072-42.672 0-59.728 8.528-8.528 17.072-12.8 29.872-12.8s21.328 4.272 29.872 12.8l213.328 213.328c4.272 4.272 8.528 8.528 8.528 12.8 4.272 12.8 4.272 21.328 0 34.128-4.272 4.272-4.272 8.528-8.528 12.8l-213.328 213.328c-17.072 17.072-42.672 17.072-59.728 0s-17.072-42.672 0-59.728l140.8-140.8h-409.6c-119.472 0-213.328-93.872-213.328-213.328z" />
<glyph unicode="&#xe944;" glyph-name="gallery-view" d="M426.672 874.672h-298.672c-25.6 0-42.672-17.072-42.672-42.672v-298.672c0-25.6 17.072-42.672 42.672-42.672h298.672c25.6 0 42.672 17.072 42.672 42.672v298.672c0 25.6-17.072 42.672-42.672 42.672zM384 576h-213.328v213.328h213.328v-213.328zM896 874.672h-298.672c-25.6 0-42.672-17.072-42.672-42.672v-298.672c0-25.6 17.072-42.672 42.672-42.672h298.672c25.6 0 42.672 17.072 42.672 42.672v298.672c0 25.6-17.072 42.672-42.672 42.672zM853.328 576h-213.328v213.328h213.328v-213.328zM896 405.328h-298.672c-25.6 0-42.672-17.072-42.672-42.672v-298.672c0-25.6 17.072-42.672 42.672-42.672h298.672c25.6 0 42.672 17.072 42.672 42.672v298.672c0 25.6-17.072 42.672-42.672 42.672zM853.328 106.672h-213.328v213.328h213.328v-213.328zM426.672 405.328h-298.672c-25.6 0-42.672-17.072-42.672-42.672v-298.672c0-25.6 17.072-42.672 42.672-42.672h298.672c25.6 0 42.672 17.072 42.672 42.672v298.672c0 25.6-17.072 42.672-42.672 42.672zM384 106.672h-213.328v213.328h213.328v-213.328z" />
<glyph unicode="&#xe945;" glyph-name="git-branch" d="M938.672 704c0 93.872-76.8 170.672-170.672 170.672s-170.672-76.8-170.672-170.672c0-76.8 55.472-145.072 128-162.128-17.072-157.872-145.072-285.872-302.928-302.928-17.072 59.728-64 106.672-119.472 119.472v473.6c0 25.6-17.072 42.672-42.672 42.672s-46.928-17.072-46.928-42.672v-473.6c-72.528-17.072-128-85.328-128-166.4 0-93.872 76.8-170.672 170.672-170.672 81.072 0 145.072 55.472 166.4 128 204.8 17.072 371.2 183.472 388.272 388.272 72.528 21.328 128 85.328 128 166.4zM256 106.672c-46.928 0-85.328 38.4-85.328 85.328s38.4 85.328 85.328 85.328c46.928 0 85.328-38.4 85.328-85.328s-38.4-85.328-85.328-85.328zM768 618.672c-46.928 0-85.328 38.4-85.328 85.328s38.4 85.328 85.328 85.328c46.928 0 85.328-38.4 85.328-85.328s-38.4-85.328-85.328-85.328z" />
<glyph unicode="&#xe946;" glyph-name="git-commit" d="M512 234.672c-119.472 0-213.328 93.872-213.328 213.328s93.872 213.328 213.328 213.328c119.472 0 213.328-93.872 213.328-213.328s-93.872-213.328-213.328-213.328zM512 576c-72.528 0-128-55.472-128-128s55.472-128 128-128c72.528 0 128 55.472 128 128s-55.472 128-128 128zM341.328 448c0 25.6-17.072 42.672-42.672 42.672h-256c-25.6 0-42.672-17.072-42.672-42.672s17.072-42.672 42.672-42.672h256c25.6 0 42.672 17.072 42.672 42.672zM1024 448c0 25.6-17.072 42.672-42.672 42.672h-256c-25.6 0-42.672-17.072-42.672-42.672s17.072-42.672 42.672-42.672h256c21.328 0 42.672 17.072 42.672 42.672z" />
<glyph unicode="&#xe947;" glyph-name="git-merge" d="M768 362.672c-76.8 0-145.072-55.472-162.128-128-157.872 17.072-285.872 145.072-302.928 302.928 72.528 21.328 128 85.328 128 162.128 0 93.872-76.8 170.672-170.672 170.672s-174.928-72.528-174.928-166.4c0-81.072 55.472-145.072 128-166.4v-473.6c0-25.6 17.072-42.672 42.672-42.672s42.672 17.072 42.672 42.672v256c72.528-93.872 179.2-157.872 302.928-170.672 17.072-72.528 85.328-132.272 166.4-132.272 93.872 0 170.672 76.8 170.672 170.672s-76.8 174.928-170.672 174.928zM170.672 704c0 46.928 38.4 85.328 85.328 85.328s85.328-38.4 85.328-85.328c0-46.928-38.4-85.328-85.328-85.328s-85.328 38.4-85.328 85.328zM768 106.672c-46.928 0-85.328 38.4-85.328 85.328s38.4 85.328 85.328 85.328c46.928 0 85.328-38.4 85.328-85.328s-38.4-85.328-85.328-85.328z" />
<glyph unicode="&#xe948;" glyph-name="git-pull-request" d="M810.672 358.4v260.272c0 72.528-55.472 128-128 128h-128c-25.6 0-42.672-17.072-42.672-42.672s17.072-42.672 42.672-42.672h128c25.6 0 42.672-17.072 42.672-42.672v-260.272c-72.528-17.072-128-85.328-128-166.4 0-93.872 76.8-170.672 170.672-170.672s170.672 76.8 170.672 170.672c0 81.072-55.472 145.072-128 166.4zM768 106.672c-46.928 0-85.328 38.4-85.328 85.328s38.4 85.328 85.328 85.328c46.928 0 85.328-38.4 85.328-85.328s-38.4-85.328-85.328-85.328zM256 874.672c-93.872 0-170.672-76.8-170.672-170.672 0-81.072 55.472-145.072 128-166.4v-473.6c0-25.6 17.072-42.672 42.672-42.672s42.672 17.072 42.672 42.672v473.6c72.528 17.072 128 85.328 128 166.4 0 93.872-76.8 170.672-170.672 170.672zM256 618.672c-46.928 0-85.328 38.4-85.328 85.328s38.4 85.328 85.328 85.328c46.928 0 85.328-38.4 85.328-85.328s-38.4-85.328-85.328-85.328z" />
<glyph unicode="&#xe949;" glyph-name="github" d="M728.736 221.072c8.704-25.536 13.072-55.312 13.072-80.848v-161.68c0-25.536-17.424-42.544-43.552-42.544s-43.552 17.024-43.552 42.544v165.936c4.352 34.032-8.704 59.568-30.48 80.848-13.072 12.768-17.424 29.776-8.704 42.544 4.352 17.024 21.776 25.536 34.848 29.776 126.304 12.768 243.888 55.312 243.888 255.296 0 46.8-17.424 93.616-52.256 131.904-13.072 12.768-13.072 29.776-8.704 42.544 13.072 34.032 13.072 68.080 4.352 102.112-21.776-4.256-56.624-17.024-113.232-55.312-8.704-8.512-21.776-8.512-34.848-4.256-91.456 25.536-191.632 25.536-283.088 0-13.072-4.256-26.128-4.256-39.2 4.256-52.256 38.288-91.456 51.056-113.232 55.312-8.704-34.032-8.704-68.080 4.352-102.112 4.352-17.024 4.352-34.032-8.704-42.544-34.848-38.288-52.256-85.104-52.256-131.904 0-199.984 117.584-242.528 243.888-255.296 17.424 0 30.48-12.768 34.848-29.776s0-34.032-8.704-42.544c-21.776-21.28-30.48-46.8-30.48-76.592v-38.288c0 0 0-4.256 0-4.256v-123.392c0-25.536-17.424-42.544-43.552-42.544s-43.552 17.024-43.552 42.544v72.336c-130.656-21.28-187.28 51.056-226.48 97.856-17.424 21.28-30.48 38.288-47.904 42.544-21.776 4.256-39.2 29.776-30.48 51.056 4.352 21.28 30.48 38.288 52.256 29.776 43.552-12.768 69.68-42.544 95.808-72.336 34.848-46.8 65.328-80.848 156.784-63.824v4.256c0 25.536 4.352 55.312 13.072 76.592-121.952 25.536-252.608 102.112-252.608 327.632 0 63.824 21.776 123.392 60.976 170.192-17.424 59.568-13.072 114.88 13.072 170.192 4.352 12.768 13.072 21.28 26.128 25.536 17.424 4.256 74.032 12.768 191.632-59.568 95.808 21.28 195.984 21.28 287.44 0 113.232 72.336 174.208 63.824 191.632 59.568 13.072-4.256 21.776-12.768 26.128-25.536 21.776-55.312 26.128-110.624 13.072-165.936 39.2-46.8 60.976-106.368 60.976-170.192 0-242.528-148.080-310.608-252.608-331.888z" />
<glyph unicode="&#xe94a;" glyph-name="gitlab" d="M1020.416 397.872l-157.872 477.872c-4.272 8.528-8.528 17.072-17.072 25.6-21.328 21.328-59.728 21.328-81.072 0-8.528-4.272-12.8-12.8-17.072-25.6l-93.872-290.128h-281.6l-93.872 290.128c-4.272 8.528-8.528 17.072-17.072 25.6-21.328 21.328-59.728 21.328-81.072 0-8.528-4.272-12.8-12.8-17.072-25.6l-157.872-477.872c-12.8-34.128 0-68.272 29.872-89.6l452.272-328.528c8.528-4.272 17.072-8.528 25.6-8.528s17.072 4.272 25.6 8.528l452.272 328.528c29.872 17.072 42.672 55.472 29.872 89.6zM512.672 65.072l-426.672 307.2 132.272 405.328 81.072-247.472c4.272-17.072 21.328-29.872 42.672-29.872h341.328c17.072 0 34.128 12.8 42.672 29.872l81.072 247.472 81.072-247.472 51.2-153.6-426.672-311.472z" />
<glyph unicode="&#xe94b;" glyph-name="globe" d="M512 917.328c-260.272 0-469.328-209.072-469.328-469.328s209.072-469.328 469.328-469.328c260.272 0 469.328 209.072 469.328 469.328s-209.072 469.328-469.328 469.328zM891.728 490.672h-170.672c-8.528 119.472-46.928 230.4-115.2 328.528 153.6-38.4 268.8-170.672 285.872-328.528zM388.272 405.328h251.728c-12.8-115.2-55.472-226.128-123.728-315.728-76.8 89.6-119.472 200.528-128 315.728zM388.272 490.672c12.8 115.2 55.472 226.128 123.728 315.728 72.528-93.872 115.2-204.8 123.728-315.728h-247.472zM413.872 819.2c-64-98.128-102.4-209.072-110.928-328.528h-170.672c17.072 157.872 132.272 290.128 281.6 328.528zM132.272 405.328h170.672c8.528-119.472 46.928-230.4 115.2-328.528-153.6 38.4-268.8 170.672-285.872 328.528zM610.128 76.8c64 98.128 102.4 209.072 115.2 328.528h170.672c-21.328-157.872-136.528-290.128-285.872-328.528z" />
<glyph unicode="&#xe94c;" glyph-name="hard-drive" d="M977.072 465.072c0 0 0 0 0 0l-149.328 294.4c-21.328 42.672-64 72.528-115.2 72.528h-405.328c-46.928 0-89.6-25.6-110.928-72.528l-145.072-294.4c0 0 0 0 0 0-8.528-4.272-8.528-8.528-8.528-17.072v-256c0-72.528 55.472-128 128-128h682.672c72.528 0 128 55.472 128 128v256c0 8.528 0 12.8-4.272 17.072zM268.8 721.072c0 0 0 0 0 0 8.528 17.072 25.6 25.6 38.4 25.6h405.328c17.072 0 29.872-8.528 38.4-25.6l115.2-230.4h-712.528l115.2 230.4zM896 192c0-25.6-17.072-42.672-42.672-42.672h-682.672c-25.6 0-42.672 17.072-42.672 42.672v213.328h768v-213.328zM226.128 247.472c-8.528 8.528-12.8 17.072-12.8 29.872 0 4.272 0 12.8 4.272 17.072s4.272 8.528 8.528 12.8c4.272 4.272 8.528 8.528 12.8 8.528 8.528 4.272 21.328 4.272 34.128 0 4.272 0 8.528-4.272 12.8-8.528s8.528-8.528 8.528-12.8c4.272-4.272 4.272-12.8 4.272-17.072 0-12.8-4.272-21.328-12.8-29.872s-17.072-12.8-29.872-12.8c-12.8 0-21.328 4.272-29.872 12.8zM396.8 247.472c-8.528 8.528-12.8 17.072-12.8 29.872 0 4.272 0 12.8 4.272 17.072s4.272 8.528 8.528 12.8c17.072 17.072 42.672 17.072 59.728 0 4.272-4.272 8.528-8.528 8.528-12.8 4.272-4.272 4.272-12.8 4.272-17.072 0-12.8-4.272-21.328-12.8-29.872s-17.072-12.8-29.872-12.8c-12.8 0-21.328 4.272-29.872 12.8z" />
<glyph unicode="&#xe94d;" glyph-name="hash" d="M853.328 362.016h-179.2l17.072 170.672h162.128c25.6 0 42.672 17.072 42.672 42.672s-17.072 42.672-42.672 42.672h-149.328l21.328 209.072c4.272 21.328-12.8 42.672-38.4 46.928-21.328 4.272-42.672-12.8-46.928-38.4l-25.6-217.6h-170.672l25.6 209.072c4.272 21.328-12.8 42.672-38.4 46.928-21.328 4.272-42.672-12.8-46.928-38.4l-25.6-217.6h-187.728c-25.6 0-42.672-17.072-42.672-42.672s17.072-42.672 42.672-42.672h179.2l-17.072-170.672h-162.128c-25.6 0-42.672-17.072-42.672-42.672s17.072-42.672 42.672-42.672h149.328l-21.328-209.072c-4.272-21.328 12.8-42.672 38.4-46.928 0 0 4.272 0 4.272 0 21.328 0 38.4 17.072 42.672 38.4l25.6 217.6h170.672l-25.6-209.072c-4.272-21.328 12.8-42.672 38.4-46.928 0 0 4.272 0 4.272 0 21.328 0 38.4 17.072 42.672 38.4l25.6 217.6h187.728c25.6 0 42.672 17.072 42.672 42.672s-17.072 42.672-42.672 42.672zM418.128 362.016l17.072 170.672h170.672l-17.072-170.672h-170.672z" />
<glyph unicode="&#xe94e;" glyph-name="headphones" d="M512 874.672c-234.672 0-426.672-192-426.672-426.672v-298.672c0-72.528 55.472-128 128-128h42.672c72.528 0 128 55.472 128 128v128c0 72.528-55.472 128-128 128h-85.328v42.672c0 187.728 153.6 341.328 341.328 341.328s341.328-153.6 341.328-341.328v-42.672h-85.328c-72.528 0-128-55.472-128-128v-128c0-72.528 55.472-128 128-128h42.672c72.528 0 128 55.472 128 128v298.672c0 234.672-192 426.672-426.672 426.672zM256 320c25.6 0 42.672-17.072 42.672-42.672v-128c0-25.6-17.072-42.672-42.672-42.672h-42.672c-25.6 0-42.672 17.072-42.672 42.672v170.672h85.328zM853.328 149.328c0-25.6-17.072-42.672-42.672-42.672h-42.672c-25.6 0-42.672 17.072-42.672 42.672v128c0 25.6 17.072 42.672 42.672 42.672h85.328v-170.672z" />
<glyph unicode="&#xe94f;" glyph-name="heart-alt" d="M905.952 794.4c-49.328 50.688-115.104 80.256-184.992 80.256s-139.776-29.568-189.104-80.256c0 0 0 0 0 0l-16.448-16.896-16.448 16.896c-102.768 105.616-271.312 105.616-374.096 0-53.44-50.688-82.224-122.512-82.224-194.32s28.768-143.632 78.112-194.32l361.76-371.744c8.224-8.448 16.448-12.672 28.784-12.672s20.56 4.224 28.784 12.672l361.76 371.744c49.328 50.688 78.112 122.512 78.112 194.32 8.224 71.808-20.56 143.632-74 194.32z" />
<glyph unicode="&#xe950;" glyph-name="heart" d="M905.952 794.4c-49.328 50.688-115.104 80.256-184.992 80.256s-139.776-29.568-189.104-80.256c0 0 0 0 0 0l-16.448-16.896-16.448 16.896c-102.768 105.616-271.312 105.616-374.096 0-53.44-50.688-82.224-122.512-82.224-194.32s28.768-143.632 78.112-194.32l361.76-371.744c8.224-8.448 16.448-12.672 28.784-12.672s20.56 4.224 28.784 12.672l361.76 371.744c49.328 50.688 78.112 122.512 78.112 194.32 8.224 71.808-20.56 143.632-74 194.32zM848.4 464.896l-332.976-342.176-332.976 342.176c-36.992 38.016-53.44 84.48-53.44 135.184s20.56 97.168 53.44 135.184c32.88 38.016 82.224 54.912 127.44 54.912 49.328 0 94.544-16.896 131.552-54.912l45.216-46.464c16.448-16.896 41.104-16.896 57.552 0l41.104 46.464c0 0 0 0 0 0 36.992 33.792 82.224 54.912 135.664 54.912 0 0 0 0 0 0 49.328 0 94.544-21.12 131.552-54.912 32.88-38.016 53.44-84.48 53.44-135.184s-20.56-97.168-57.552-135.184z" />
<glyph unicode="&#xe951;" glyph-name="help" d="M678.4 533.328c0-110.928-140.8-162.128-157.872-166.4-4.272-4.272-8.528-4.272-12.8-4.272-17.072 0-34.128 12.8-38.4 29.872-8.528 21.328 4.272 46.928 25.6 55.472 25.6 8.528 98.128 42.672 98.128 89.6 0 38.4-21.328 68.272-55.472 81.072-42.672 17.072-93.872-8.528-110.928-51.2-8.528-21.328-34.128-34.128-55.472-25.6-21.328 0-29.872 25.6-25.6 46.928 29.872 89.6 128 136.528 217.6 102.4 68.272-21.328 115.2-85.328 115.2-157.872zM981.328 448c0-260.272-209.072-469.328-469.328-469.328s-469.328 209.072-469.328 469.328c0 260.272 209.072 469.328 469.328 469.328s469.328-209.072 469.328-469.328zM896 448c0 213.328-170.672 384-384 384s-384-170.672-384-384c0-213.328 170.672-384 384-384s384 170.672 384 384zM541.872 264.528c0 0-4.272 4.272-8.528 4.272s-4.272 4.272-8.528 4.272c-4.272 0-4.272 0-8.528 4.272-8.528 0-17.072 0-25.6-4.272-4.272 0-8.528-4.272-12.8-8.528s-8.528-8.528-8.528-12.8c0-4.272-4.272-8.528-4.272-17.072 0-12.8 4.272-21.328 12.8-29.872s17.072-12.8 29.872-12.8c12.8 0 21.328 4.272 29.872 12.8s12.8 17.072 12.8 29.872c0 4.272 0 12.8-4.272 17.072 4.272 4.272 0 8.528-4.272 12.8z" />
<glyph unicode="&#xe952;" glyph-name="home" d="M921.6 609.424l-384 298.32c-17.072 12.784-38.4 12.784-51.2 0l-384-298.32c-12.8-8.528-17.072-21.312-17.072-34.096v-468.8c0-72.448 55.472-127.856 128-127.856h597.328c72.528 0 128 55.408 128 127.856v468.8c0 12.784-4.272 25.568-17.072 34.096zM597.328 63.904h-170.672v340.944h170.672v-340.944zM853.328 106.528c0-25.568-17.072-42.624-42.672-42.624h-128v383.568c0 25.568-17.072 42.624-42.672 42.624h-256c-25.6 0-42.672-17.040-42.672-42.624v-383.568h-128c-25.6 0-42.672 17.040-42.672 42.624v447.488l341.328 264.24 341.328-264.24v-447.488z" />
<glyph unicode="&#xe953;" glyph-name="laptop" d="M853.328 896h-682.672c-72.528 0-128-50.576-128-116.72v-427.984c0-66.144 55.472-116.72 128-116.72h682.672c72.528 0 128 50.576 128 116.72v427.984c0 66.144-55.472 116.72-128 116.72zM896 351.28c0-23.344-17.072-38.912-42.672-38.912h-682.672c-25.6 0-42.672 15.568-42.672 38.912v427.984c0 23.344 17.072 38.912 42.672 38.912h682.672c25.6 0 42.672-15.568 42.672-38.912v-427.984zM981.328 128c0-25.6-17.072-42.672-42.672-42.672h-864c-25.6 0-42.672 17.072-42.672 42.672s17.072 42.672 42.672 42.672h864c25.6 0 42.672-17.072 42.672-42.672z" />
<glyph unicode="&#xe954;" glyph-name="inbox" d="M977.072 422.4c0 0 0 0 0 0l-149.328 332.8c-17.072 46.928-64 76.8-115.2 76.8 0 0 0 0 0 0h-401.072c0 0 0 0 0 0-51.2 0-98.128-29.872-115.2-76.8l-149.328-332.8c0 0 0 0 0 0-4.272-4.272-4.272-12.8-4.272-17.072v-213.328c0-72.528 55.472-128 128-128h682.672c72.528 0 128 55.472 128 128v213.328c0 4.272 0 12.8-4.272 17.072zM273.072 721.072c0 0 0 0 0 0 4.272 17.072 21.328 25.6 38.4 25.6h401.072c17.072 0 34.128-8.528 38.4-25.6l119.472-273.072h-187.728c-12.8 0-25.6-8.528-34.128-17.072l-72.528-110.928h-123.728l-72.528 110.928c-12.8 8.528-25.6 17.072-38.4 17.072h-192l123.728 273.072zM853.328 149.328h-682.672c-25.6 0-42.672 17.072-42.672 42.672v170.672h192l72.528-110.928c8.528-8.528 21.328-17.072 34.128-17.072h170.672c12.8 0 25.6 8.528 34.128 17.072l72.528 110.928h192v-170.672c0-25.6-17.072-42.672-42.672-42.672z" />
<glyph unicode="&#xe955;" glyph-name="incoming" d="M32 27.728c0-4.272 0-8.528 4.272-12.8 0 0 0-4.272 0-4.272 0-4.272 4.272-8.528 8.528-12.8s8.528-4.272 12.8-8.528c0 0 4.272 0 4.272 0 4.272 0 8.528 0 12.8-4.272 0 4.272 0 4.272 0 4.272 4.272 0 8.528 0 12.8 4.272l853.328 298.672c17.072 4.272 29.872 17.072 29.872 38.4 0 17.072-8.528 34.128-25.6 42.672l-366.928 162.128-162.128 366.928c-8.528 17.072-21.328 25.6-38.4 25.6 0 0 0 0 0 0-17.072 0-34.128-12.8-38.4-29.872l-298.672-853.328c-8.528-4.272-8.528-8.528-8.528-17.072 0 4.272 0 4.272 0 0zM236.8 134.4l315.728 315.728 260.272-115.2-576-200.528zM377.6 770.128l115.2-260.272-315.728-315.728 200.528 576z" />
<glyph unicode="&#xe956;" glyph-name="info-alt" d="M565.328 581.328v-458.672c0-34.432-24.224-58.672-58.672-58.672s-58.672 24.224-58.672 58.672v458.672c0 34.432 24.224 58.672 58.672 58.672s58.672-24.224 58.672-58.672zM502.4 704c-35.344 0-64 28.656-64 64s28.656 64 64 64c35.344 0 64-28.656 64-64s-28.656-64-64-64z" />
<glyph unicode="&#xe957;" glyph-name="info" d="M512 917.328c-260.272 0-469.328-209.072-469.328-469.328s209.072-469.328 469.328-469.328c260.272 0 469.328 209.072 469.328 469.328s-209.072 469.328-469.328 469.328zM512 64c-213.328 0-384 170.672-384 384s170.672 384 384 384c213.328 0 384-170.672 384-384s-170.672-384-384-384zM554.672 448v-170.672c0-25.6-17.072-42.672-42.672-42.672s-42.672 17.072-42.672 42.672v170.672c0 25.6 17.072 42.672 42.672 42.672s42.672-17.072 42.672-42.672zM541.872 648.528c8.528-8.528 12.8-17.072 12.8-29.872s-4.272-21.328-12.8-29.872c-8.528-8.528-17.072-12.8-29.872-12.8-4.272 0-4.272 0-8.528 0s-4.272 0-8.528 4.272c-4.272 0-4.272 4.272-8.528 4.272s-4.272 4.272-4.272 4.272c-8.528 8.528-12.8 17.072-12.8 29.872s4.272 21.328 12.8 29.872c0 0 4.272 4.272 4.272 4.272 4.272 0 4.272 4.272 8.528 4.272s4.272 0 8.528 4.272c12.8 0 29.872-4.272 38.4-12.8z" />
<glyph unicode="&#xe958;" glyph-name="instagram" d="M725.328 917.328h-426.672c-140.8 0-256-115.2-256-256v-426.672c0-140.8 115.2-256 256-256h426.672c140.8 0 256 115.2 256 256v426.672c0 140.8-115.2 256-256 256zM896 234.672c0-93.872-76.8-170.672-170.672-170.672h-426.672c-93.872 0-170.672 76.8-170.672 170.672v426.672c0 93.872 76.8 170.672 170.672 170.672h426.672c93.872 0 170.672-76.8 170.672-170.672v-426.672zM546.128 661.328c-21.328 4.272-42.672 4.272-64 0-115.2-17.072-196.272-128-179.2-243.2 17.072-106.672 106.672-183.472 209.072-183.472 8.528 0 21.328 0 29.872 4.272 55.472 8.528 106.672 38.4 140.8 85.328s46.928 102.4 38.4 157.872c-8.528 93.872-81.072 166.4-174.928 179.2zM618.672 375.472c-21.328-25.6-51.2-46.928-85.328-51.2-68.272-8.528-136.528 38.4-145.072 106.672-12.8 68.272 38.4 136.528 106.672 145.072 4.272 0 12.8 0 17.072 0s12.8 0 17.072 0c55.472-8.528 98.128-51.2 106.672-106.672 8.528-34.128 0-68.272-17.072-93.872zM785.072 699.728c0-4.272 4.272-8.528 4.272-17.072 0-12.8-4.272-21.328-12.8-29.872s-21.328-12.8-29.872-12.8c-8.528 0-21.328 4.272-29.872 12.8s-12.8 21.328-12.8 29.872c0 4.272 0 12.8 4.272 17.072 0 4.272 4.272 8.528 8.528 12.8 17.072 17.072 42.672 17.072 59.728 0 4.272-4.272 8.528-8.528 8.528-12.8z" />
<glyph unicode="&#xe959;" glyph-name="last" d="M584.528 418.128l-256-256c-8.528-8.528-17.072-12.8-29.872-12.8s-21.328 4.272-29.872 12.8c-17.072 17.072-17.072 42.672 0 59.728l226.128 226.128-226.128 226.128c-17.072 17.072-17.072 42.672 0 59.728s42.672 17.072 59.728 0l256-256c17.072-17.072 17.072-42.672 0-59.728zM768 725.36v-533.040c0-25.584-17.072-42.64-42.672-42.64s-42.672 17.056-42.672 42.64v533.040c0 25.584 17.072 42.64 42.672 42.64s42.672-17.056 42.672-42.64z" />
<glyph unicode="&#xe95a;" glyph-name="layers" d="M68.272 623.664l426.672-213.568c4.272-4.272 8.528-4.272 17.072-4.272s12.8 0 17.072 4.272l426.672 213.584c17.072 8.544 25.6 21.36 25.6 38.448s-8.528 29.904-25.6 38.448l-426.672 213.568c-12.8 4.272-25.6 4.272-38.4 0l-426.672-213.568c-12.8-8.544-21.328-21.36-21.328-38.448s8.528-29.904 25.6-38.448zM512 828.704l332.8-166.592-332.8-166.592-332.8 166.592 332.8 166.592zM977.072 252.048c8.528-21.36 0-46.992-17.072-55.536l-426.672-213.584c-8.528-4.272-12.8-4.272-21.328-4.272s-12.8 0-17.072 4.272l-426.672 213.584c-21.328 8.544-29.872 34.176-17.072 55.536 8.528 21.36 34.128 29.904 55.472 17.088l409.6-205.040 409.6 205.040c12.8 12.816 38.4 4.272 51.2-17.088zM977.072 465.616c8.528-21.36 0-46.992-17.072-55.536l-426.672-213.584c-8.528-4.272-12.8-4.272-21.328-4.272s-12.8 0-17.072 4.272l-426.672 213.584c-21.328 8.544-29.872 34.176-17.072 55.536 8.528 21.36 34.128 29.904 55.472 17.088l409.6-205.040 409.6 205.040c12.8 12.816 38.4 4.272 51.2-17.088z" />
<glyph unicode="&#xe95b;" glyph-name="layout" d="M810.672 874.672h-597.328c-72.528 0-128-55.472-128-128v-597.328c0-72.528 55.472-128 128-128h597.328c72.528 0 128 55.472 128 128v597.328c0 72.528-55.472 128-128 128zM213.328 789.328h597.328c25.6 0 42.672-17.072 42.672-42.672v-128h-682.672v128c0 25.6 17.072 42.672 42.672 42.672zM170.672 149.328v384h170.672v-426.672h-128c-25.6 0-42.672 17.072-42.672 42.672zM810.672 106.672h-384v426.672h426.672v-384c0-25.6-17.072-42.672-42.672-42.672z" />
<glyph unicode="&#xe95c;" glyph-name="life-buoy" d="M844.8 115.2c85.328 85.328 136.528 200.528 136.528 332.8 0 128-51.2 247.472-136.528 332.8 0 0 0 0 0 0s0 0 0 0c-85.328 85.328-204.8 136.528-332.8 136.528s-247.472-51.2-332.8-136.528c0 0 0 0 0 0s0 0 0 0c-85.328-85.328-136.528-204.8-136.528-332.8s51.2-247.472 136.528-332.8c0 0 0 0 0 0s0 0 0 0c85.328-85.328 200.528-136.528 332.8-136.528 128 0 247.472 51.2 332.8 136.528 0 0 0 0 0 0s0 0 0 0zM810.672 209.072l-123.728 123.728c25.6 29.872 38.4 72.528 38.4 115.2s-12.8 85.328-34.128 119.472l119.472 119.472c51.2-64 85.328-149.328 85.328-238.928s-29.872-174.928-85.328-238.928zM384 448c0 72.528 55.472 128 128 128s128-55.472 128-128c0-72.528-55.472-128-128-128s-128 55.472-128 128zM750.928 746.672l-123.728-123.728c-29.872 25.6-72.528 38.4-115.2 38.4s-85.328-12.8-119.472-34.128l-119.472 119.472c64 55.472 149.328 85.328 238.928 85.328s174.928-29.872 238.928-85.328zM213.328 686.928l123.728-123.728c-25.6-29.872-38.4-72.528-38.4-115.2s12.8-85.328 34.128-119.472l-119.472-119.472c-51.2 64-85.328 149.328-85.328 238.928s29.872 174.928 85.328 238.928zM273.072 149.328l123.728 123.728c29.872-25.6 72.528-38.4 115.2-38.4s85.328 12.8 119.472 34.128l123.728-123.728c-64-51.2-149.328-85.328-238.928-85.328-93.872 4.272-179.2 34.128-243.2 89.6z" />
<glyph unicode="&#xe95d;" glyph-name="link" d="M910.24 483.856l-129.008-128.432c-8.608-8.56-17.2-17.12-30.096-25.68-47.296-34.256-98.896-51.376-154.8-51.376-77.408 0-154.8 34.256-206.4 102.752-12.896 17.12-8.608 47.088 8.608 59.936s47.296 8.56 60.208-8.56c55.904-77.056 163.408-89.904 240.8-34.256 8.608 4.288 12.896 8.56 17.2 17.12l129.008 128.432c64.496 68.496 64.496 175.536-4.304 239.744s-172 64.224-240.8 0l-73.104-72.784c-17.2-17.12-43.008-17.12-60.208 0s-17.2 42.816 0 59.936l73.104 72.784c98.896 98.464 258 98.464 356.912 0 107.504-94.192 111.808-261.152 12.896-359.632zM488.832 188.448l-73.104-72.784c-68.8-64.224-172-64.224-240.8 0s-68.8 175.536-4.304 239.744l129.008 128.432c4.304 4.288 12.896 12.848 17.2 17.12 38.704 25.68 81.696 38.528 129.008 34.256 47.296-8.56 86-29.968 111.808-68.496 12.896-17.12 43.008-21.408 60.208-8.56s21.504 42.816 8.608 59.936c-43.008 55.664-103.2 89.904-167.712 98.464-64.496 12.848-133.296-4.288-189.2-47.088-8.608-8.56-17.2-17.12-25.808-25.68l-129.008-128.432c-98.896-102.752-94.608-265.44 4.304-363.904 51.6-47.088 116.096-72.784 180.608-72.784s129.008 25.68 180.608 72.784l73.104 72.784c17.2 17.12 17.2 42.816 0 59.936s-47.296 21.408-64.496 4.288z" />
<glyph unicode="&#xe95e;" glyph-name="linkedin" d="M682.672 618.672c-166.4 0-298.672-132.272-298.672-298.672v-298.672c0-25.6 17.072-42.672 42.672-42.672h170.672c25.6 0 42.672 17.072 42.672 42.672v298.672c0 25.6 17.072 42.672 42.672 42.672s42.672-17.072 42.672-42.672v-298.672c0-25.6 17.072-42.672 42.672-42.672h170.672c25.6 0 42.672 17.072 42.672 42.672v298.672c0 166.4-132.272 298.672-298.672 298.672zM896 64h-85.328v256c0 72.528-55.472 128-128 128s-128-55.472-128-128v-256h-85.328v256c0 119.472 93.872 213.328 213.328 213.328s213.328-93.872 213.328-213.328v-256zM256 576h-170.672c-25.6 0-42.672-17.072-42.672-42.672v-512c0-25.6 17.072-42.672 42.672-42.672h170.672c25.6 0 42.672 17.072 42.672 42.672v512c0 25.6-17.072 42.672-42.672 42.672zM213.328 64h-85.328v426.672h85.328v-426.672zM170.672 874.672c-72.528 0-128-55.472-128-128s55.472-128 128-128c72.528 0 128 55.472 128 128s-55.472 128-128 128zM170.672 704c-25.6 0-42.672 17.072-42.672 42.672s17.072 42.672 42.672 42.672c25.6 0 42.672-17.072 42.672-42.672s-17.072-42.672-42.672-42.672z" />
<glyph unicode="&#xe95f;" glyph-name="list-view" d="M298.672 703.824c0 25.6 17.072 42.672 42.672 42.672h554.672c25.6 0 42.672-17.072 42.672-42.672s-17.072-42.672-42.672-42.672h-554.672c-25.6 0-42.672 17.072-42.672 42.672zM896 490.496h-554.672c-25.6 0-42.672-17.072-42.672-42.672s17.072-42.672 42.672-42.672h554.672c25.6 0 42.672 17.072 42.672 42.672s-17.072 42.672-42.672 42.672zM896 234.496h-554.672c-25.6 0-42.672-17.072-42.672-42.672s17.072-42.672 42.672-42.672h554.672c25.6 0 42.672 17.072 42.672 42.672s-17.072 42.672-42.672 42.672zM145.072 742.224c-17.072 8.528-34.128 4.272-46.928-8.528-4.272-4.272-8.528-8.528-8.528-12.8-4.272-4.272-4.272-12.8-4.272-17.072s0-12.8 4.272-17.072c4.272-4.272 4.272-8.528 8.528-12.8 0 0 4.272-4.272 4.272-4.272 4.272 0 4.272-4.272 8.528-4.272s4.272 0 8.528-4.272c4.272 0 4.272 0 8.528 0 12.8 0 21.328 4.272 29.872 12.8s12.8 17.072 12.8 29.872c0 12.8-4.272 21.328-12.8 29.872-4.272 4.272-8.528 8.528-12.8 8.528zM166.4 464.896c0 4.272-4.272 4.272-4.272 8.528s-4.272 4.272-4.272 4.272c-12.8 12.8-29.872 17.072-46.928 8.528-4.272-4.272-8.528-4.272-12.8-8.528 0 0-4.272-4.272-4.272-4.272 0-4.272-4.272-4.272-4.272-8.528s0-4.272-4.272-8.528c0-4.272 0-4.272 0-8.528 0-12.8 4.272-21.328 12.8-29.872s17.072-12.8 29.872-12.8c12.8 0 21.328 4.272 29.872 12.8s12.8 17.072 12.8 29.872c0 4.272 0 4.272 0 8.528s-4.272 4.272-4.272 8.528zM98.128 221.696c-4.272-4.272-8.528-8.528-8.528-12.8-4.272-4.272-4.272-12.8-4.272-17.072 0-12.8 4.272-21.328 12.8-29.872s17.072-12.8 29.872-12.8c12.8 0 21.328 4.272 29.872 12.8s12.8 17.072 12.8 29.872c0 12.8-4.272 21.328-12.8 29.872-17.072 17.072-42.672 17.072-59.728 0z" />
<glyph unicode="&#xe960;" glyph-name="loader" d="M554.672 874.672v-170.672c0-25.6-17.072-42.672-42.672-42.672s-42.672 17.072-42.672 42.672v170.672c0 25.6 17.072 42.672 42.672 42.672s42.672-17.072 42.672-42.672zM512 234.672c-25.6 0-42.672-17.072-42.672-42.672v-170.672c0-25.6 17.072-42.672 42.672-42.672s42.672 17.072 42.672 42.672v170.672c0 25.6-17.072 42.672-42.672 42.672zM238.928 780.8c-17.072 17.072-42.672 17.072-59.728 0s-17.072-42.672 0-59.728l119.472-119.472c8.528-8.528 21.328-12.8 29.872-12.8s21.328 4.272 29.872 12.8c17.072 17.072 17.072 42.672 0 59.728l-119.472 119.472zM721.072 298.672c-17.072 17.072-42.672 17.072-59.728 0s-17.072-42.672 0-59.728l119.472-119.472c8.528-8.528 21.328-12.8 29.872-12.8s21.328 4.272 29.872 12.8c17.072 17.072 17.072 42.672 0 59.728l-119.472 119.472zM298.672 448c0 25.6-17.072 42.672-42.672 42.672h-170.672c-25.6 0-42.672-17.072-42.672-42.672s17.072-42.672 42.672-42.672h170.672c25.6 0 42.672 17.072 42.672 42.672zM938.672 490.672h-170.672c-25.6 0-42.672-17.072-42.672-42.672s17.072-42.672 42.672-42.672h170.672c25.6 0 42.672 17.072 42.672 42.672s-17.072 42.672-42.672 42.672zM302.928 298.672l-119.472-119.472c-17.072-17.072-17.072-42.672 0-59.728 8.528-8.528 21.328-12.8 29.872-12.8s21.328 4.272 29.872 12.8l119.472 119.472c17.072 17.072 17.072 42.672 0 59.728s-46.928 17.072-59.728 0zM691.2 584.528c12.8 0 21.328 4.272 29.872 12.8l119.472 119.472c17.072 17.072 17.072 42.672 0 59.728s-42.672 17.072-59.728 0l-119.472-119.472c-17.072-17.072-17.072-42.672 0-59.728 8.528-8.528 21.328-12.8 29.872-12.8z" />
<glyph unicode="&#xe961;" glyph-name="lock-alt" d="M810.672 533.328h-42.672v128c0 140.8-115.2 256-256 256s-256-115.2-256-256v-128h-42.672c-72.528 0-128-55.472-128-128v-298.672c0-72.528 55.472-128 128-128h597.328c72.528 0 128 55.472 128 128v298.672c0 72.528-55.472 128-128 128zM341.328 661.328c0 93.872 76.8 170.672 170.672 170.672s170.672-76.8 170.672-170.672v-128h-341.328v128z" />
<glyph unicode="&#xe962;" glyph-name="lock" d="M810.672 533.328h-42.672v128c0 140.8-115.2 256-256 256s-256-115.2-256-256v-128h-42.672c-72.528 0-128-55.472-128-128v-298.672c0-72.528 55.472-128 128-128h597.328c72.528 0 128 55.472 128 128v298.672c0 72.528-55.472 128-128 128zM341.328 661.328c0 93.872 76.8 170.672 170.672 170.672s170.672-76.8 170.672-170.672v-128h-341.328v128zM853.328 106.672c0-25.6-17.072-42.672-42.672-42.672h-597.328c-25.6 0-42.672 17.072-42.672 42.672v298.672c0 25.6 17.072 42.672 42.672 42.672h597.328c25.6 0 42.672-17.072 42.672-42.672v-298.672z" />
<glyph unicode="&#xe963;" glyph-name="log-in" d="M938.672 789.328v-682.672c0-72.528-55.472-128-128-128h-213.328c-25.6 0-42.672 17.072-42.672 42.672s17.072 42.672 42.672 42.672h213.328c25.6 0 42.672 17.072 42.672 42.672v682.672c0 25.6-17.072 42.672-42.672 42.672h-213.328c-25.6 0-42.672 17.072-42.672 42.672s17.072 42.672 42.672 42.672h213.328c72.528 0 128-55.472 128-128zM678.4 430.928c4.272 8.528 4.272 21.328 0 34.128-4.272 4.272-4.272 8.528-8.528 12.8l-170.672 170.672c-17.072 17.072-42.672 17.072-59.728 0s-17.072-42.672 0-59.728l98.128-98.128h-409.6c-25.6 0-42.672-17.072-42.672-42.672s17.072-42.672 42.672-42.672h409.6l-98.128-98.128c-17.072-17.072-17.072-42.672 0-59.728 8.528-8.528 21.328-12.8 29.872-12.8s21.328 4.272 29.872 12.8l170.672 170.672c4.272 4.272 8.528 8.528 8.528 12.8z" />
<glyph unicode="&#xe964;" glyph-name="logout" d="M469.808 21.328c0-25.6-17.088-42.672-42.72-42.672h-213.6c-72.624 0-128.16 55.472-128.16 128v682.672c0 72.528 55.536 128 128.16 128h213.6c25.632 0 42.72-17.072 42.72-42.672s-17.088-42.672-42.72-42.672h-213.6c-25.632 0-42.72-17.072-42.72-42.672v-682.672c0-25.6 17.088-42.672 42.72-42.672h213.6c25.632 0 42.72-17.072 42.72-42.672zM935.456 430.928c4.272 8.528 4.272 21.328 0 34.128-4.272 4.272-4.272 8.528-8.544 12.8l-170.88 170.672c-17.088 17.072-42.72 17.072-59.808 0s-17.088-42.672 0-59.728l98.256-98.128h-410.112c-25.632 0-42.72-17.072-42.72-42.672s17.088-42.672 42.72-42.672h410.112l-98.256-98.128c-17.088-17.072-17.088-42.672 0-59.728 8.544-8.528 21.36-12.8 29.904-12.8s21.36 4.272 29.904 12.8l170.88 170.672c4.272 4.272 8.544 8.528 8.544 12.8z" />
<glyph unicode="&#xe965;" glyph-name="map-b" d="M1002.672 910.96c-12.8 8.496-29.872 8.496-42.672 0l-277.328-161.392-324.272 161.408c0 0 0 0 0 0s0 0-4.272 0c-4.272 4.24-8.528 4.24-12.8 4.24 0 0 0 0 0 0s0 0 0 0c-4.272 0-8.528 0-17.072-4.24 0 0 0 0-4.272 0 0 0-4.272 0-4.272 0l-298.672-169.888c-8.528-8.496-17.072-21.232-17.072-38.224v-679.584c0-16.992 8.528-29.728 21.328-38.224s29.872-8.496 42.672 0l277.328 161.392 320-161.392c0 0 0 0 0 0 8.528-4.24 12.8-4.24 21.328-4.24 4.272 0 8.528 0 12.8 4.24 0 0 4.272 0 4.272 0s0 0 4.272 0l298.672 169.888c12.8 8.496 21.328 21.232 21.328 38.224v679.584c0 16.992-8.528 29.728-21.328 38.224zM384 804.784l256-127.424v-586.128l-256 127.424v586.128zM85.328 677.36l213.328 123.168v-581.888l-213.328-123.168v581.888zM938.672 218.64l-213.328-123.168v581.888l213.328 123.168v-581.888z" />
<glyph unicode="&#xe966;" glyph-name="map-a" d="M512 960c-234.672 0-426.672-192-426.672-426.672 0-315.728 388.272-580.272 401.072-588.8 8.528-4.272 17.072-8.528 25.6-8.528s17.072 4.272 25.6 8.528c12.8 8.528 401.072 273.072 401.072 588.8 0 234.672-192 426.672-426.672 426.672zM512 29.872c-81.072 59.728-341.328 273.072-341.328 503.472 0 187.728 153.6 341.328 341.328 341.328s341.328-153.6 341.328-341.328c0-230.4-260.272-443.728-341.328-503.472zM512 704c-93.872 0-170.672-76.8-170.672-170.672s76.8-170.672 170.672-170.672c93.872 0 170.672 76.8 170.672 170.672s-76.8 170.672-170.672 170.672zM512 448c-46.928 0-85.328 38.4-85.328 85.328s38.4 85.328 85.328 85.328c46.928 0 85.328-38.4 85.328-85.328s-38.4-85.328-85.328-85.328z" />
<glyph unicode="&#xe967;" glyph-name="maximize" d="M384 64c0-25.6-17.072-42.672-42.672-42.672h-128c-72.528 0-128 55.472-128 128v128c0 25.6 17.072 42.672 42.672 42.672s42.672-17.072 42.672-42.672v-128c0-25.6 17.072-42.672 42.672-42.672h128c25.6 0 42.672-17.072 42.672-42.672zM341.328 874.672h-128c-72.528 0-128-55.472-128-128v-128c0-25.6 17.072-42.672 42.672-42.672s42.672 17.072 42.672 42.672v128c0 25.6 17.072 42.672 42.672 42.672h128c25.6 0 42.672 17.072 42.672 42.672s-17.072 42.672-42.672 42.672zM896 320c-25.6 0-42.672-17.072-42.672-42.672v-128c0-25.6-17.072-42.672-42.672-42.672h-128c-25.6 0-42.672-17.072-42.672-42.672s17.072-42.672 42.672-42.672h128c72.528 0 128 55.472 128 128v128c0 25.6-17.072 42.672-42.672 42.672zM810.672 874.672h-128c-25.6 0-42.672-17.072-42.672-42.672s17.072-42.672 42.672-42.672h128c25.6 0 42.672-17.072 42.672-42.672v-128c0-25.6 17.072-42.672 42.672-42.672s42.672 17.072 42.672 42.672v128c0 72.528-55.472 128-128 128z" />
<glyph unicode="&#xe968;" glyph-name="menu" d="M938.672 448c0-25.6-17.072-42.672-42.672-42.672h-768c-25.6 0-42.672 17.072-42.672 42.672s17.072 42.672 42.672 42.672h768c25.6 0 42.672-17.072 42.672-42.672zM128 661.328h768c25.6 0 42.672 17.072 42.672 42.672s-17.072 42.672-42.672 42.672h-768c-25.6 0-42.672-17.072-42.672-42.672s17.072-42.672 42.672-42.672zM896 234.672h-768c-25.6 0-42.672-17.072-42.672-42.672s17.072-42.672 42.672-42.672h768c25.6 0 42.672 17.072 42.672 42.672s-17.072 42.672-42.672 42.672z" />
<glyph unicode="&#xe969;" glyph-name="message-circle" d="M938.672 494.928c-12.768 204.8-174.592 371.2-383.248 379.728h-21.296c0 0 0 0 0 0-63.872 0-123.488-12.8-178.848-42.672-140.528-68.272-225.696-209.072-225.696-362.672 0-55.472 12.768-115.2 34.064-166.4l-76.656-226.128c-4.256-17.072 0-34.128 8.512-42.672 12.768-8.528 21.296-12.8 34.064-12.8 4.256 0 8.512 0 12.768 4.272l225.696 76.8c51.104-21.328 106.464-34.128 166.080-34.128 153.296 0 293.824 85.328 361.952 221.872 29.808 55.472 42.576 119.472 42.576 183.472v21.328zM853.504 469.328c0 0 0 0 0 0 0-51.2-12.768-98.128-34.064-145.072-55.36-110.928-161.824-174.928-285.312-174.928-46.848 0-97.936 12.8-140.528 34.128-8.512 4.272-21.296 4.272-34.064 4.272l-161.824-55.472 55.36 162.128c4.256 12.8 4.256 21.328-4.256 34.128-21.296 42.672-34.064 93.872-34.064 140.8 0 123.728 68.128 230.4 178.848 285.872 42.576 21.328 93.68 34.128 140.528 34.128 0 0 0 0 0 0h17.040c161.824-8.528 289.568-136.528 302.336-298.672v-21.328z" />
<glyph unicode="&#xe96a;" glyph-name="mic-off" d="M1011.2 12.48l-251.728 250.688c0 4.256-4.272 4.256-4.272 8.496 0 0-4.272 4.256-4.272 4.256l-337.072 331.424c0 0 0 0 0 0l-341.328 339.92c-17.072 16.992-42.672 16.992-59.728 0s-17.072-42.496 0-59.488l328.528-327.168v-110.48c0-46.736 17.072-89.232 51.2-118.976 29.872-33.984 72.528-50.992 119.472-50.992 0 0 0 0 0 0 29.872 0 59.728 8.496 85.328 25.488l64-63.728c-42.672-29.744-89.6-46.736-140.8-46.736-4.272 0-4.272 0-8.528 0s-4.272 0-8.528 0c-64 0-123.728 25.488-170.672 72.224-51.2 46.736-76.8 114.72-76.8 182.704v84.976c0 25.488-17.072 42.496-42.672 42.496s-42.672-16.992-42.672-42.496v-84.976c0-93.472 38.4-182.704 102.4-246.432 55.472-55.232 123.728-84.976 196.272-93.472v-84.976h-128c-25.6 0-42.672-16.992-42.672-42.496s17.072-42.496 42.672-42.496h341.328c25.6 0 42.672 16.992 42.672 42.496s-17.072 42.496-42.672 42.496h-128v84.976c59.728 8.496 119.472 29.744 166.4 67.984l230.4-229.44c8.528-8.496 21.328-12.752 29.872-12.752s21.328 4.256 29.872 12.752c17.072 21.248 17.072 46.736 0 63.728zM512 365.152c0 0 0 0 0 0-21.328 0-42.672 8.496-59.728 25.488s-25.6 38.24-25.6 59.488v25.488l106.672-106.224c-8.528-4.256-12.8-4.256-21.328-4.256zM345.6 824.032c17.072 80.736 85.328 135.968 166.4 135.968 0 0 0 0 0 0 46.928 0 89.6-16.992 119.472-50.992 34.128-29.744 51.2-72.224 51.2-118.976v-225.2c0-25.488-17.072-42.496-42.672-42.496s-42.672 16.992-42.672 42.496v225.2c0 21.248-8.528 42.496-25.6 59.488s-38.4 25.488-59.728 25.488c0 0 0 0 0 0-38.4 0-76.8-29.744-85.328-67.984-4.272-21.248-25.6-38.24-46.928-33.984-25.6 4.256-38.4 29.744-34.128 50.992zM763.728 403.392c4.272 16.992 4.272 29.744 4.272 46.736v84.976c0 25.488 17.072 42.496 42.672 42.496s42.672-16.992 42.672-42.496v-84.976c0-21.248 0-38.24-4.272-59.488s-21.328-33.984-42.672-33.984c-4.272 0-4.272 0-8.528 0-21.328 4.256-38.4 25.488-34.128 46.736z" />
<glyph unicode="&#xe96b;" glyph-name="mickey-a" d="M854.8 352.448c0-194.432-153.808-352.464-343.936-352.464-190.112 0-343.872 158.016-343.872 352.464 0 19.008 1.488 37.92 4.464 56.64-45.248 7.536-85.984 28.992-116.912 62.656-84.896 92.832-68.352 247.168 33.36 345.392 102.16 98.944 254.432 106.48 339.952 13.024 31.504-34.336 49.792-78.432 53.648-126.448 9.808 0.912 19.6 1.36 29.344 1.36 10.512 0 21.072-0.544 31.728-1.616 3.808 48.016 22.032 92.144 53.504 126.624 85.536 93.472 237.776 85.92 340-12.896 101.792-98.208 118.32-252.56 33.328-345.52-31.376-34.096-72.848-55.584-118.976-62.832 2.912-18.512 4.384-37.344 4.384-56.384zM771.088 353.216c0 52.016-14.624 101.84-41.728 145.088l-11.040 17.616 18.512-8.768c61.712-29.232 128.848-20.288 169.36 23.936 54.032 59.104 43.008 160.448-25.264 226.512-68.32 66.016-167.472 71.072-221.6 12.048-40.416-44.256-45.056-113.584-13.008-174.928l9.648-18.464-17.792 10.256c-38.944 22.464-82.512 34.432-127.808 34.432-43.632 0-85.504-10.944-122.912-31.664l-16.848-9.328 8.752 17.488c30.384 60.768 25.056 128.72-14.8 172.224-54.048 59.024-153.184 53.968-221.504-12.048-68.288-66.064-79.312-167.408-25.28-226.528 39.424-43.168 104.368-52.992 164.976-26.4l17.552 7.712-10.208-16.576c-26.208-42.592-40.384-91.632-40.384-142.608 0-147.968 116.784-268.016 260.672-268.016 144 0 260.688 119.984 260.688 268.016z" />
<glyph unicode="&#xe96c;" glyph-name="mickey-b" d="M619.712 808.528c-35.936-39.376-51.248-93.68-44.224-151.12l7.264 6.704c-24.32 5.904-48.192 8.976-71.888 8.976-23.056 0-46.24-2.848-69.392-8.336l7.232-6.688c6.848 57.264-8.544 111.392-44.416 150.48-72.624 79.36-204.256 72.656-294.128-14.368-89.856-86.768-104.512-221.504-32-300.8 35.328-38.448 85.696-57.712 140.352-55.056l-5.968 7.856c-8.928-30.4-13.552-61.808-13.552-93.696 0-176.96 139.616-320.464 311.872-320.464 172.272 0 311.936 143.52 311.936 320.464 0 32.32-4.624 63.776-13.648 93.888l-6-7.888c55.664-3.184 106.896 15.952 142.704 54.88 72.544 79.344 57.904 214.096-31.984 300.832-89.92 86.928-221.536 93.68-294.128 14.352z" />
<glyph unicode="&#xe96d;" glyph-name="microphone-alt" d="M512 277.328c93.872 0 170.672 76.8 170.672 170.672v341.328c0 93.872-76.8 170.672-170.672 170.672s-170.672-76.8-170.672-170.672v-341.328c0-93.872 76.8-170.672 170.672-170.672zM853.328 533.328v-85.328c0-174.928-132.272-315.728-298.672-337.072v-89.6h128c25.6 0 42.672-17.072 42.672-42.672s-17.072-42.672-42.672-42.672h-341.328c-25.6 0-42.672 17.072-42.672 42.672s17.072 42.672 42.672 42.672h128v89.6c-166.4 21.328-298.672 166.4-298.672 337.072v85.328c0 25.6 17.072 42.672 42.672 42.672s42.672-17.072 42.672-42.672v-85.328c0-140.8 115.2-256 256-256s256 115.2 256 256v85.328c0 25.6 17.072 42.672 42.672 42.672s42.672-17.072 42.672-42.672z" />
<glyph unicode="&#xe96e;" glyph-name="microphone" d="M512 277.328c93.872 0 170.672 76.8 170.672 170.672v341.328c0 93.872-76.8 170.672-170.672 170.672s-170.672-76.8-170.672-170.672v-341.328c0-93.872 76.8-170.672 170.672-170.672zM426.672 789.328c0 46.928 38.4 85.328 85.328 85.328s85.328-38.4 85.328-85.328v-341.328c0-46.928-38.4-85.328-85.328-85.328s-85.328 38.4-85.328 85.328v341.328zM853.328 533.328v-85.328c0-174.928-132.272-315.728-298.672-337.072v-89.6h128c25.6 0 42.672-17.072 42.672-42.672s-17.072-42.672-42.672-42.672h-341.328c-25.6 0-42.672 17.072-42.672 42.672s17.072 42.672 42.672 42.672h128v89.6c-166.4 21.328-298.672 166.4-298.672 337.072v85.328c0 25.6 17.072 42.672 42.672 42.672s42.672-17.072 42.672-42.672v-85.328c0-140.8 115.2-256 256-256s256 115.2 256 256v85.328c0 25.6 17.072 42.672 42.672 42.672s42.672-17.072 42.672-42.672z" />
<glyph unicode="&#xe96f;" glyph-name="minimize-alt" d="M465.072 379.728c4.272-4.272 4.272-12.8 4.272-17.072v-256c0-25.6-17.072-42.672-42.672-42.672s-42.672 17.072-42.672 42.672v153.6l-226.128-226.128c-8.528-8.528-17.072-12.8-29.872-12.8s-21.328 4.272-29.872 12.8c-17.072 17.072-17.072 42.672 0 59.728l226.128 226.128h-153.6c-25.6 0-42.672 17.072-42.672 42.672s17.072 42.672 42.672 42.672h256c4.272 0 12.8 0 17.072-4.272 8.528-4.272 17.072-12.8 21.328-21.328zM925.872 861.872c-17.072 17.072-42.672 17.072-59.728 0l-226.128-226.128v153.6c0 25.6-17.072 42.672-42.672 42.672s-42.672-17.072-42.672-42.672v-256c0-4.272 0-12.8 4.272-17.072 4.272-8.528 12.8-17.072 21.328-21.328 4.272-4.272 12.8-4.272 17.072-4.272h256c25.6 0 42.672 17.072 42.672 42.672s-17.072 42.672-42.672 42.672h-153.6l226.128 226.128c17.072 17.072 17.072 42.672 0 59.728z" />
<glyph unicode="&#xe970;" glyph-name="minimize" d="M640 704v128c0 25.6 17.072 42.672 42.672 42.672s42.672-17.072 42.672-42.672v-128c0-25.6 17.072-42.672 42.672-42.672h128c25.6 0 42.672-17.072 42.672-42.672s-17.072-42.672-42.672-42.672h-128c-72.528 0-128 55.472-128 128zM256 320h-128c-25.6 0-42.672-17.072-42.672-42.672s17.072-42.672 42.672-42.672h128c25.6 0 42.672-17.072 42.672-42.672v-128c0-25.6 17.072-42.672 42.672-42.672s42.672 17.072 42.672 42.672v128c0 72.528-55.472 128-128 128zM896 320h-128c-72.528 0-128-55.472-128-128v-128c0-25.6 17.072-42.672 42.672-42.672s42.672 17.072 42.672 42.672v128c0 25.6 17.072 42.672 42.672 42.672h128c25.6 0 42.672 17.072 42.672 42.672s-17.072 42.672-42.672 42.672zM341.328 874.672c-25.6 0-42.672-17.072-42.672-42.672v-128c0-25.6-17.072-42.672-42.672-42.672h-128c-25.6 0-42.672-17.072-42.672-42.672s17.072-42.672 42.672-42.672h128c72.528 0 128 55.472 128 128v128c0 25.6-17.072 42.672-42.672 42.672z" />
<glyph unicode="&#xe971;" glyph-name="minus-circle" d="M512 917.328c-260.272 0-469.328-209.072-469.328-469.328s209.072-469.328 469.328-469.328c260.272 0 469.328 209.072 469.328 469.328s-209.072 469.328-469.328 469.328zM512 64c-213.328 0-384 170.672-384 384s170.672 384 384 384c213.328 0 384-170.672 384-384s-170.672-384-384-384zM725.328 448c0-25.6-17.072-42.672-42.672-42.672h-341.328c-25.6 0-42.672 17.072-42.672 42.672s17.072 42.672 42.672 42.672h341.328c25.6 0 42.672-17.072 42.672-42.672z" />
<glyph unicode="&#xe972;" glyph-name="minus-square" d="M810.672 874.672h-597.328c-72.528 0-128-55.472-128-128v-597.328c0-72.528 55.472-128 128-128h597.328c72.528 0 128 55.472 128 128v597.328c0 72.528-55.472 128-128 128zM853.328 149.328c0-25.6-17.072-42.672-42.672-42.672h-597.328c-25.6 0-42.672 17.072-42.672 42.672v597.328c0 25.6 17.072 42.672 42.672 42.672h597.328c25.6 0 42.672-17.072 42.672-42.672v-597.328zM725.328 448c0-25.6-17.072-42.672-42.672-42.672h-341.328c-25.6 0-42.672 17.072-42.672 42.672s17.072 42.672 42.672 42.672h341.328c25.6 0 42.672-17.072 42.672-42.672z" />
<glyph unicode="&#xe973;" glyph-name="minus" d="M853.328 448c0-25.6-17.072-42.672-42.672-42.672h-597.328c-25.6 0-42.672 17.072-42.672 42.672s17.072 42.672 42.672 42.672h597.328c25.6 0 42.672-17.072 42.672-42.672z" />
</font>
</defs>
</svg>
